<?xml version="1.0" encoding="UTF-8"?><svg id="Capa_2" xmlns="http://www.w3.org/2000/svg" viewBox="0 0 606.46 253.5"><defs><style>.cls-1{stroke-width:2.21px;}.cls-1,.cls-2,.cls-3,.cls-4,.cls-5,.cls-6{stroke-miterlimit:10;}.cls-1,.cls-3,.cls-4{fill:none;}.cls-1,.cls-4{stroke:#000;}.cls-2{fill:#f7f7f7;}.cls-2,.cls-3,.cls-5,.cls-6{stroke:#1d1d1b;}.cls-2,.cls-4,.cls-5,.cls-6{stroke-width:2px;}.cls-5,.cls-7{fill:#1d1d1b;}.cls-6{fill:#fff;}</style></defs><g id="Capa_1-2"><polyline class="cls-1" points="323.73 2.38 323.73 49.39 329.72 51.19 323.72 53 317.72 54.8 323.72 56.61 329.72 58.41 323.72 60.21 317.72 62.01 323.72 63.82 329.72 65.62 323.72 67.43 317.72 69.23 323.72 71.03 329.72 72.84 323.72 74.65 317.72 76.45 323.61 78.23 323.61 250.65"/><path d="m5.46,140.65c-.08-.17-.15-.46-.2-.89-.67.7-1.47,1.05-2.41,1.05-.83,0-1.52-.24-2.05-.71-.53-.47-.8-1.07-.8-1.79,0-.88.33-1.56,1-2.05.67-.49,1.61-.73,2.82-.73h1.41v-.66c0-.5-.15-.91-.45-1.21-.3-.3-.75-.45-1.34-.45-.52,0-.95.13-1.3.39-.35.26-.52.58-.52.95H.17c0-.42.15-.83.45-1.22.3-.39.71-.7,1.22-.93.51-.23,1.08-.34,1.69-.34.97,0,1.74.24,2.29.73.55.49.84,1.16.86,2.01v3.89c0,.78.1,1.39.3,1.85v.12h-1.52Zm-2.4-1.1c.45,0,.88-.12,1.29-.35s.7-.54.88-.91v-1.73h-1.13c-1.77,0-2.66.52-2.66,1.55,0,.45.15.81.45,1.06.3.25.69.38,1.16.38Z"/><path d="m12.34,139.62c.52,0,.97-.16,1.35-.47.39-.31.6-.7.64-1.17h1.37c-.03.48-.19.95-.5,1.38-.31.44-.72.79-1.23,1.05-.51.26-1.06.39-1.63.39-1.15,0-2.07-.38-2.75-1.15s-1.02-1.82-1.02-3.15v-.24c0-.82.15-1.55.45-2.2.3-.64.74-1.14,1.3-1.49.56-.35,1.23-.53,2-.53.95,0,1.74.28,2.36.85.63.57.96,1.3,1,2.21h-1.37c-.04-.55-.25-1-.62-1.35-.37-.35-.83-.53-1.38-.53-.73,0-1.3.26-1.71.79-.4.53-.61,1.29-.61,2.29v.27c0,.97.2,1.72.6,2.25.4.53.97.79,1.72.79Z"/><path d="m306.4,230.06c-.14,1.2-.58,2.13-1.33,2.79-.75.65-1.74.98-2.98.98-1.34,0-2.42-.48-3.23-1.45-.81-.96-1.21-2.25-1.21-3.87v-1.09c0-1.06.19-1.99.57-2.79.38-.8.91-1.42,1.61-1.85.69-.43,1.49-.64,2.41-.64,1.21,0,2.18.34,2.91,1.01.73.67,1.15,1.61,1.27,2.8h-1.51c-.13-.91-.41-1.57-.85-1.97-.44-.41-1.04-.61-1.82-.61-.96,0-1.71.35-2.25,1.06-.54.71-.82,1.72-.82,3.03v1.1c0,1.24.26,2.22.77,2.95s1.24,1.09,2.16,1.09c.83,0,1.47-.19,1.92-.57s.74-1.04.89-1.97h1.51Z"/><path d="m289.61,126.52v-11.38h3.21c.99,0,1.86.22,2.62.66s1.35,1.06,1.76,1.87.62,1.73.63,2.78v.73c0,1.07-.21,2.01-.62,2.82s-1,1.43-1.77,1.86-1.66.65-2.68.66h-3.15Zm1.5-10.15v8.92h1.58c1.16,0,2.06-.36,2.7-1.08s.96-1.74.96-3.07v-.66c0-1.29-.3-2.3-.91-3.01s-1.47-1.08-2.58-1.09h-1.75Z"/><path d="m306.61,126.52h-1.23v-4.7l-1.69.45v-1l2.77-.91h.14v6.16Z"/><path d="m463.08,168.07v-11.38h3.21c.99,0,1.86.22,2.62.66.76.44,1.35,1.06,1.76,1.87s.62,1.73.63,2.78v.73c0,1.07-.21,2.01-.62,2.82s-1.01,1.43-1.77,1.86c-.77.43-1.66.65-2.68.66h-3.15Zm1.5-10.15v8.92h1.58c1.16,0,2.06-.36,2.7-1.08.64-.72.96-1.74.96-3.07v-.66c0-1.29-.3-2.3-.91-3.01-.61-.72-1.47-1.08-2.58-1.09h-1.75Z"/><path d="m481.55,168.07h-4.68v-.84l2.34-2.2c.57-.53.85-.98.85-1.34,0-.26-.08-.46-.25-.62-.17-.16-.41-.24-.72-.24-.39,0-.68.1-.86.3-.19.2-.28.45-.28.75h-1.23c0-.59.22-1.08.65-1.47.43-.39,1-.58,1.68-.58s1.23.17,1.63.5c.4.33.6.78.6,1.36,0,.54-.28,1.09-.84,1.65l-.66.62-1.38,1.13h3.12v1Z"/><path d="m427.74,134.85h-.91v-6.02l-1.82.67v-.82l2.59-.97h.14v7.14Z"/><path d="m434.85,131.82c0,1.06-.18,1.84-.54,2.36s-.93.77-1.69.77-1.32-.25-1.68-.75c-.36-.5-.55-1.25-.57-2.25v-1.21c0-1.04.18-1.82.54-2.33s.93-.76,1.7-.76,1.33.25,1.69.73c.36.49.55,1.25.56,2.27v1.17Zm-.9-1.24c0-.76-.11-1.32-.32-1.67-.21-.35-.55-.53-1.02-.53s-.8.17-1.01.52c-.21.35-.32.88-.33,1.61v1.45c0,.77.11,1.34.33,1.7.22.37.56.55,1.01.55s.78-.17.99-.52c.22-.34.33-.89.34-1.63v-1.48Z"/><path d="m440.46,131.82c0,1.06-.18,1.84-.54,2.36s-.93.77-1.69.77-1.32-.25-1.68-.75c-.36-.5-.55-1.25-.57-2.25v-1.21c0-1.04.18-1.82.54-2.33s.93-.76,1.7-.76,1.33.25,1.69.73c.36.49.55,1.25.56,2.27v1.17Zm-.9-1.24c0-.76-.11-1.32-.32-1.67-.21-.35-.55-.53-1.02-.53s-.8.17-1.01.52c-.21.35-.32.88-.33,1.61v1.45c0,.77.11,1.34.33,1.7.22.37.56.55,1.01.55s.78-.17.99-.52c.22-.34.33-.89.34-1.63v-1.48Z"/><path d="m443.66,131.54l-.87.9v2.4h-.94v-7.11h.94v3.52l3.16-3.52h1.13l-2.8,3.14,3.02,3.97h-1.12l-2.52-3.31Z"/><path d="m415.4,65.59v-11.38h3.21c.99,0,1.86.22,2.62.66s1.35,1.06,1.76,1.87.62,1.73.63,2.78v.73c0,1.07-.21,2.01-.62,2.82s-1,1.43-1.77,1.86-1.66.65-2.68.66h-3.15Zm1.5-10.15v8.92h1.58c1.16,0,2.06-.36,2.7-1.08s.96-1.74.96-3.07v-.66c0-1.29-.3-2.3-.91-3.01s-1.47-1.08-2.58-1.09h-1.75Z"/><path d="m430.61,62.01h.66c.39,0,.67-.08.86-.24s.28-.37.28-.62c0-.24-.08-.43-.25-.58-.16-.15-.43-.23-.79-.23-.3,0-.54.07-.74.2s-.29.31-.29.52h-1.23c0-.51.21-.92.64-1.24s.96-.48,1.61-.48c.71,0,1.27.16,1.68.47s.61.74.61,1.29c0,.29-.09.55-.27.79s-.45.42-.79.55c.78.21,1.16.69,1.16,1.44,0,.55-.22.99-.66,1.32s-1.02.49-1.73.49-1.25-.16-1.68-.49-.65-.77-.65-1.33h1.23c0,.23.1.43.31.59s.48.23.83.23.64-.08.83-.23.29-.37.29-.63c0-.59-.41-.89-1.22-.9h-.69v-.91Z"/><path d="m353.87,56.17h-2.67v4.6h-1.51v-11.38h3.77c1.28,0,2.27.29,2.96.88.69.58,1.04,1.43,1.04,2.55,0,.71-.19,1.33-.57,1.85s-.92.92-1.6,1.18l2.67,4.83v.09h-1.61l-2.47-4.6Zm-2.67-1.23h2.3c.74,0,1.34-.19,1.78-.58.44-.39.66-.9.66-1.55,0-.7-.21-1.24-.63-1.62-.42-.38-1.03-.57-1.82-.57h-2.3v4.32Z"/><path d="m366.06,60.77h-1.23v-4.7l-1.69.45v-1l2.77-.91h.14v6.16Z"/><path d="m573.06,61.57h-4.77v5.02h-1.5v-11.38h7.05v1.23h-5.55v3.9h4.77v1.23Z"/><path d="m584,62.98c-.14,1.2-.58,2.13-1.33,2.79-.75.65-1.74.98-2.98.98-1.34,0-2.42-.48-3.23-1.45-.81-.96-1.21-2.25-1.21-3.87v-1.09c0-1.06.19-1.99.57-2.79.38-.8.91-1.42,1.61-1.85.69-.43,1.49-.64,2.41-.64,1.21,0,2.18.34,2.91,1.01.73.67,1.15,1.61,1.27,2.8h-1.51c-.13-.91-.41-1.57-.85-1.97-.44-.41-1.04-.61-1.82-.61-.96,0-1.71.35-2.25,1.06-.54.71-.82,1.72-.82,3.03v1.1c0,1.24.26,2.22.77,2.95s1.24,1.09,2.16,1.09c.83,0,1.47-.19,1.92-.57s.74-1.04.89-1.97h1.51Z"/><path d="m592.47,61.33h-4.93v4.03h5.73v1.23h-7.23v-11.38h7.15v1.23h-5.65v3.66h4.93v1.23Z"/><path d="m597.07,55.22l3.72,9.28,3.72-9.28h1.95v11.38h-1.5v-4.43l.14-4.78-3.73,9.21h-1.15l-3.73-9.19.15,4.76v4.43h-1.5v-11.38h1.94Z"/><path d="m554.4,181.07c-1.29-.37-2.22-.82-2.81-1.36s-.88-1.2-.88-2c0-.9.36-1.64,1.07-2.22.72-.59,1.65-.88,2.79-.88.78,0,1.48.15,2.09.45.61.3,1.09.72,1.42,1.25s.5,1.11.5,1.74h-1.51c0-.69-.22-1.23-.66-1.63s-1.05-.59-1.85-.59c-.74,0-1.32.16-1.73.49s-.62.78-.62,1.36c0,.46.2.86.59,1.18.39.32,1.06.61,2.01.88.95.27,1.69.56,2.22.88.53.32.93.69,1.19,1.12s.39.93.39,1.51c0,.92-.36,1.66-1.08,2.21s-1.68.83-2.88.83c-.78,0-1.51-.15-2.19-.45-.68-.3-1.2-.71-1.57-1.23s-.55-1.11-.55-1.77h1.51c0,.69.25,1.23.76,1.63s1.19.6,2.04.6c.79,0,1.4-.16,1.82-.48s.63-.76.63-1.32-.2-.99-.59-1.29-1.1-.61-2.12-.9Z"/><path d="m568.9,182.53c-.14,1.2-.58,2.13-1.33,2.79-.75.65-1.74.98-2.98.98-1.34,0-2.42-.48-3.23-1.45-.81-.96-1.21-2.25-1.21-3.87v-1.09c0-1.06.19-1.99.57-2.79.38-.8.91-1.42,1.61-1.85.69-.43,1.5-.64,2.41-.64,1.21,0,2.18.34,2.91,1.01.73.67,1.15,1.61,1.27,2.8h-1.51c-.13-.91-.41-1.57-.85-1.97-.43-.41-1.04-.61-1.82-.61-.96,0-1.71.35-2.25,1.06-.54.71-.82,1.72-.82,3.03v1.1c0,1.24.26,2.22.77,2.95s1.24,1.09,2.16,1.09c.83,0,1.47-.19,1.92-.57s.74-1.04.89-1.97h1.51Z"/><path d="m575.12,181.54h-2.67v4.6h-1.51v-11.38h3.77c1.28,0,2.27.29,2.96.88.69.58,1.04,1.43,1.04,2.55,0,.71-.19,1.33-.57,1.85s-.92.92-1.6,1.18l2.67,4.83v.09h-1.61l-2.47-4.6Zm-2.67-1.23h2.3c.75,0,1.34-.19,1.78-.58.44-.39.66-.9.66-1.55,0-.7-.21-1.24-.63-1.62-.42-.38-1.02-.57-1.82-.57h-2.3v4.32Z"/><path d="m540.02,11.39h4.76v2.05h-4.76v5.39h-2.18v-5.39h-4.76v-2.05h4.76v-4.98h2.18v4.98Z"/><path d="m546.95,102.77h-15.66v-1.77h15.66v1.77Z"/><path d="m348.02,66.65v.77h-.17c-.7.01-1.26.22-1.68.62-.42.4-.66.97-.72,1.7.38-.43.89-.64,1.53-.64s1.11.22,1.48.65c.37.44.55,1,.55,1.69,0,.73-.2,1.32-.6,1.76-.4.44-.93.66-1.6.66s-1.23-.26-1.66-.78c-.42-.52-.63-1.2-.63-2.02v-.35c0-1.31.28-2.31.84-3,.56-.69,1.39-1.04,2.49-1.06h.16Zm-1.19,3.2c-.31,0-.59.09-.85.28-.26.19-.44.42-.54.7v.33c0,.59.13,1.06.4,1.42s.59.54.99.54.73-.15.96-.45c.23-.3.35-.69.35-1.18s-.12-.88-.35-1.18c-.24-.3-.55-.45-.94-.45Z"/><path d="m354.4,68.51c0,.35-.09.67-.28.95-.19.28-.44.49-.76.65.37.16.67.39.88.7.22.31.32.65.32,1.04,0,.62-.21,1.11-.62,1.47s-.96.55-1.64.55-1.23-.18-1.64-.55c-.41-.37-.62-.86-.62-1.47,0-.38.11-.73.32-1.04s.5-.54.87-.7c-.32-.16-.56-.37-.75-.65-.18-.28-.27-.59-.27-.94,0-.6.19-1.07.58-1.43.38-.35.89-.53,1.52-.53s1.13.18,1.52.53.58.83.58,1.43Zm-.74,3.32c0-.4-.13-.72-.38-.97-.25-.25-.58-.38-.99-.38s-.73.12-.98.37c-.25.25-.37.57-.37.98s.12.72.36.95.57.35,1,.35.76-.12,1-.35c.24-.23.36-.55.36-.95Zm-1.36-4.53c-.35,0-.64.11-.86.33-.22.22-.33.52-.33.9s.11.65.33.88c.22.22.5.33.87.33s.65-.11.87-.33c.22-.22.32-.51.32-.88s-.11-.66-.34-.88-.51-.34-.85-.34Z"/><path d="m360.16,70.73c0,1.06-.18,1.84-.54,2.36s-.93.77-1.69.77-1.32-.25-1.68-.75c-.36-.5-.55-1.25-.57-2.25v-1.21c0-1.04.18-1.82.54-2.33s.93-.76,1.7-.76,1.33.25,1.69.73c.36.49.55,1.25.56,2.27v1.17Zm-.9-1.24c0-.76-.11-1.32-.32-1.67-.21-.35-.55-.53-1.02-.53s-.8.17-1.01.52c-.21.35-.32.88-.33,1.61v1.45c0,.77.11,1.34.33,1.7.22.37.56.55,1.01.55s.78-.17.99-.52c.22-.34.33-.89.34-1.63v-1.48Z"/><path d="m366.8,72.97c.45-.09.8-.36,1.05-.83.25-.46.38-1.08.39-1.84v-.66c0-.75-.16-1.33-.47-1.73-.32-.4-.75-.6-1.3-.6s-.98.2-1.29.61-.47.98-.47,1.73v.55c0,.78.13,1.41.38,1.9.25.48.62.77,1.09.86v.79h-2.4v-.77h1.08c-.34-.33-.62-.75-.81-1.25-.2-.5-.29-1.01-.29-1.54v-.54c0-.61.12-1.15.34-1.62s.55-.84.96-1.1c.41-.26.88-.39,1.41-.39s.99.13,1.4.38c.41.25.73.61.96,1.07.23.46.35.99.36,1.57v.63c0,.52-.1,1.03-.29,1.53-.2.5-.46.92-.81,1.25h1.07v.77h-2.36v-.79Z"/><path d="m378.16,161.21h-2.98l-.67,1.86h-.97l2.71-7.11h.82l2.72,7.11h-.96l-.68-1.86Zm-2.7-.77h2.42l-1.21-3.33-1.21,3.33Z"/><path d="m381.55,157.79v5.89c0,1.02-.46,1.52-1.38,1.52-.2,0-.38-.03-.55-.09v-.72c.1.03.24.04.41.04.2,0,.36-.05.46-.16.11-.11.16-.3.16-.57v-5.92h.9Zm-1-1.4c0-.14.04-.27.13-.37.09-.1.22-.15.39-.15s.31.05.4.15c.09.1.14.22.14.37s-.04.27-.14.37c-.09.1-.22.15-.4.15s-.31-.05-.4-.15-.13-.22-.13-.37Z"/><path d="m386.26,162.55c-.35.41-.87.62-1.55.62-.56,0-.99-.16-1.29-.49-.29-.33-.44-.81-.45-1.45v-3.44h.9v3.41c0,.8.33,1.2.98,1.2.69,0,1.15-.26,1.38-.77v-3.84h.9v5.28h-.86l-.02-.52Z"/><path d="m391.59,161.67c0-.24-.09-.43-.28-.57-.18-.13-.5-.25-.96-.35-.46-.1-.82-.21-1.09-.35s-.47-.3-.6-.49c-.13-.19-.19-.41-.19-.67,0-.43.18-.8.55-1.1s.83-.45,1.4-.45c.6,0,1.08.15,1.46.46.37.31.56.71.56,1.19h-.91c0-.25-.1-.46-.31-.64s-.47-.27-.79-.27-.59.07-.77.21-.28.33-.28.56c0,.22.09.38.26.49.17.11.48.22.94.32.45.1.82.22,1.1.36.28.14.49.31.62.5.13.2.2.44.2.72,0,.47-.19.85-.57,1.13-.38.29-.87.43-1.47.43-.42,0-.8-.08-1.12-.22-.33-.15-.58-.36-.76-.63-.18-.27-.28-.56-.28-.87h.9c.02.3.14.54.36.72.23.18.52.27.9.27.34,0,.62-.07.82-.21.21-.14.31-.32.31-.55Z"/><path d="m394.9,156.51v1.28h.99v.7h-.99v3.28c0,.21.04.37.13.48.09.11.24.16.45.16.1,0,.25-.02.43-.06v.73c-.24.06-.47.1-.69.1-.4,0-.71-.12-.91-.37s-.31-.59-.31-1.04v-3.28h-.96v-.7h.96v-1.28h.9Z"/><path d="m399.13,163.17c-.72,0-1.3-.24-1.75-.71-.45-.47-.67-1.1-.67-1.89v-.17c0-.52.1-.99.3-1.4.2-.41.48-.73.84-.97.36-.23.75-.35,1.17-.35.69,0,1.22.23,1.6.68s.57,1.1.57,1.94v.38h-3.58c.01.52.17.94.46,1.26.29.32.66.48,1.11.48.32,0,.59-.07.81-.2.22-.13.42-.3.58-.52l.55.43c-.44.68-1.11,1.02-1.99,1.02Zm-.11-4.74c-.36,0-.67.13-.92.4-.25.26-.4.64-.46,1.12h2.65v-.07c-.03-.46-.15-.81-.37-1.07-.22-.25-.52-.38-.9-.38Z"/><path d="m404.49,160.38c0-.81.19-1.46.58-1.96.38-.49.89-.74,1.51-.74s1.11.21,1.47.63v-2.75h.9v7.5h-.83l-.04-.57c-.36.44-.86.66-1.51.66-.61,0-1.11-.25-1.5-.75s-.58-1.16-.58-1.96v-.07Zm.9.1c0,.6.12,1.07.37,1.41.25.34.59.51,1.03.51.57,0,.99-.26,1.25-.77v-2.43c-.27-.5-.68-.75-1.25-.75-.44,0-.79.17-1.04.51-.25.34-.37.85-.37,1.52Z"/><path d="m412.54,163.17c-.72,0-1.3-.24-1.75-.71-.45-.47-.67-1.1-.67-1.89v-.17c0-.52.1-.99.3-1.4.2-.41.48-.73.84-.97.36-.23.75-.35,1.17-.35.69,0,1.22.23,1.6.68s.57,1.1.57,1.94v.38h-3.58c.01.52.17.94.46,1.26.29.32.66.48,1.11.48.32,0,.59-.07.81-.2.22-.13.42-.3.58-.52l.55.43c-.44.68-1.11,1.02-1.99,1.02Zm-.11-4.74c-.36,0-.67.13-.92.4-.25.26-.4.64-.46,1.12h2.65v-.07c-.03-.46-.15-.81-.37-1.07-.22-.25-.52-.38-.9-.38Z"/><path d="m376.56,173.84l1.31-4.06h.92l-1.89,5.28h-.69l-1.91-5.28h.92l1.34,4.06Z"/><path d="m381.79,175.17c-.72,0-1.3-.24-1.75-.71-.45-.47-.67-1.1-.67-1.89v-.17c0-.52.1-.99.3-1.4.2-.41.48-.73.84-.97.36-.23.75-.35,1.17-.35.69,0,1.22.23,1.6.68s.57,1.1.57,1.94v.38h-3.58c.01.52.17.94.46,1.26.29.32.66.48,1.11.48.32,0,.59-.07.81-.2.22-.13.42-.3.58-.52l.55.43c-.44.68-1.11,1.02-1.99,1.02Zm-.11-4.74c-.36,0-.67.13-.92.4-.25.26-.4.64-.46,1.12h2.65v-.07c-.03-.46-.15-.81-.37-1.07-.22-.25-.52-.38-.9-.38Z"/><path d="m385.87,175.07h-.9v-7.5h.9v7.5Z"/><path d="m387.08,172.38c0-.52.1-.98.31-1.4.2-.41.49-.73.85-.96.36-.22.78-.34,1.24-.34.72,0,1.3.25,1.75.75s.67,1.16.67,1.99v.06c0,.51-.1.98-.29,1.38-.2.41-.48.73-.84.96s-.79.34-1.26.34c-.72,0-1.3-.25-1.74-.75s-.67-1.16-.67-1.98v-.06Zm.91.11c0,.59.14,1.06.41,1.41.27.35.64.53,1.09.53s.82-.18,1.09-.54c.27-.36.41-.86.41-1.51,0-.58-.14-1.05-.41-1.41-.28-.36-.64-.54-1.1-.54s-.81.18-1.08.53-.41.86-.41,1.52Z"/><path d="m395.14,174.43c.32,0,.6-.1.84-.29.24-.2.38-.44.4-.73h.85c-.02.3-.12.59-.31.86-.19.27-.45.49-.77.65-.32.16-.66.24-1.02.24-.72,0-1.29-.24-1.72-.72-.42-.48-.64-1.14-.64-1.97v-.15c0-.51.09-.97.28-1.37.19-.4.46-.71.81-.93.35-.22.77-.33,1.25-.33.59,0,1.08.18,1.48.53.39.35.6.82.63,1.38h-.85c-.03-.34-.16-.62-.39-.84-.23-.22-.52-.33-.86-.33-.46,0-.81.17-1.07.5-.25.33-.38.81-.38,1.43v.17c0,.61.13,1.08.38,1.41.25.33.61.49,1.07.49Z"/><path d="m398.26,168.39c0-.15.04-.27.13-.37.09-.1.22-.15.4-.15s.31.05.4.15c.09.1.14.22.14.37s-.04.27-.14.37c-.09.1-.22.15-.4.15s-.31-.05-.4-.15c-.09-.1-.13-.22-.13-.37Zm.98,6.68h-.9v-5.28h.9v5.28Z"/><path d="m400.46,172.38c0-.81.19-1.46.58-1.96.38-.49.89-.74,1.51-.74s1.11.21,1.47.63v-2.75h.9v7.5h-.83l-.04-.57c-.36.44-.86.66-1.51.66-.61,0-1.11-.25-1.5-.75s-.58-1.16-.58-1.96v-.07Zm.9.1c0,.6.12,1.07.37,1.41.25.34.59.51,1.03.51.57,0,.99-.26,1.25-.77v-2.43c-.27-.5-.68-.75-1.25-.75-.44,0-.79.17-1.04.51-.25.34-.37.85-.37,1.52Z"/><path d="m409.58,175.07c-.05-.1-.09-.29-.13-.56-.42.44-.92.65-1.5.65-.52,0-.95-.15-1.28-.44-.33-.29-.5-.67-.5-1.12,0-.55.21-.98.63-1.28.42-.3,1.01-.46,1.76-.46h.88v-.42c0-.32-.09-.57-.28-.75-.19-.19-.47-.28-.83-.28-.32,0-.59.08-.81.24-.22.16-.33.36-.33.59h-.91c0-.26.09-.52.28-.76.19-.25.44-.44.76-.58.32-.14.67-.21,1.06-.21.61,0,1.09.15,1.43.46.35.3.52.72.54,1.26v2.43c0,.49.06.87.19,1.16v.08h-.95Zm-1.5-.69c.28,0,.55-.07.81-.22s.44-.34.55-.57v-1.08h-.71c-1.11,0-1.66.32-1.66.97,0,.28.09.5.28.66.19.16.43.24.73.24Z"/><path d="m411.54,172.38c0-.81.19-1.46.58-1.96.38-.49.89-.74,1.51-.74s1.11.21,1.47.63v-2.75h.9v7.5h-.83l-.04-.57c-.36.44-.86.66-1.51.66-.61,0-1.11-.25-1.5-.75s-.58-1.16-.58-1.96v-.07Zm.9.1c0,.6.12,1.07.37,1.41.25.34.59.51,1.03.51.57,0,.99-.26,1.25-.77v-2.43c-.27-.5-.68-.75-1.25-.75-.44,0-.79.17-1.04.51-.25.34-.37.85-.37,1.52Z"/><path d="m449.79,226.24v-7.11h2.01c.62,0,1.17.14,1.64.41.47.27.84.66,1.1,1.17s.39,1.08.39,1.74v.45c0,.67-.13,1.26-.39,1.76s-.63.89-1.11,1.16c-.48.27-1.04.41-1.68.42h-1.97Zm.94-6.34v5.58h.99c.72,0,1.29-.22,1.69-.67.4-.45.6-1.09.6-1.92v-.42c0-.81-.19-1.44-.57-1.88-.38-.45-.92-.67-1.61-.68h-1.09Z"/><path d="m456.21,219.55c0-.15.04-.27.13-.37.09-.1.22-.15.4-.15s.31.05.4.15c.09.1.14.22.14.37s-.05.27-.14.37c-.09.1-.22.15-.4.15s-.31-.05-.4-.15c-.09-.1-.13-.22-.13-.37Zm.98,6.68h-.9v-5.28h.9v5.28Z"/><path d="m458.39,223.55c0-.52.1-.98.3-1.4.2-.41.49-.73.85-.96.36-.22.78-.34,1.24-.34.72,0,1.3.25,1.75.75s.67,1.16.67,1.99v.06c0,.51-.1.98-.3,1.38-.2.41-.48.73-.84.96s-.79.34-1.26.34c-.72,0-1.3-.25-1.74-.75s-.67-1.16-.67-1.98v-.06Zm.91.11c0,.59.14,1.06.41,1.41.27.35.64.53,1.09.53s.82-.18,1.09-.54c.27-.36.41-.86.41-1.51,0-.58-.14-1.05-.41-1.41-.27-.36-.64-.54-1.1-.54s-.81.18-1.08.53-.41.86-.41,1.52Z"/><path d="m464.11,223.55c0-.81.19-1.46.58-1.96.38-.49.89-.74,1.51-.74s1.11.21,1.47.63v-2.75h.9v7.5h-.83l-.04-.57c-.36.44-.86.66-1.51.66s-1.11-.25-1.5-.75-.58-1.16-.58-1.96v-.07Zm.9.1c0,.6.12,1.07.37,1.41.25.34.59.51,1.03.51.57,0,.99-.26,1.25-.77v-2.43c-.27-.5-.69-.75-1.25-.75-.44,0-.79.17-1.04.51-.25.34-.37.85-.37,1.52Z"/><path d="m469.73,223.55c0-.52.1-.98.3-1.4.2-.41.49-.73.85-.96.36-.22.78-.34,1.24-.34.72,0,1.3.25,1.75.75s.67,1.16.67,1.99v.06c0,.51-.1.98-.3,1.38-.2.41-.48.73-.84.96s-.79.34-1.26.34c-.72,0-1.3-.25-1.74-.75s-.67-1.16-.67-1.98v-.06Zm.91.11c0,.59.14,1.06.41,1.41.27.35.64.53,1.09.53s.82-.18,1.09-.54c.27-.36.41-.86.41-1.51,0-.58-.14-1.05-.41-1.41-.27-.36-.64-.54-1.1-.54s-.81.18-1.08.53-.41.86-.41,1.52Z"/><path d="m477.93,223.55c0-.81.19-1.46.58-1.96.38-.49.89-.74,1.51-.74s1.11.21,1.47.63v-2.75h.9v7.5h-.83l-.04-.57c-.36.44-.86.66-1.51.66s-1.11-.25-1.5-.75-.58-1.16-.58-1.96v-.07Zm.9.1c0,.6.12,1.07.37,1.41.25.34.59.51,1.03.51.57,0,.99-.26,1.25-.77v-2.43c-.27-.5-.69-.75-1.25-.75-.44,0-.79.17-1.04.51-.25.34-.37.85-.37,1.52Z"/><path d="m485.98,226.34c-.72,0-1.3-.24-1.75-.71-.45-.47-.67-1.1-.67-1.89v-.17c0-.52.1-.99.3-1.4.2-.41.48-.73.84-.97.36-.23.75-.35,1.17-.35.69,0,1.22.23,1.6.68s.57,1.1.57,1.94v.38h-3.58c.01.52.17.94.46,1.26.29.32.66.48,1.11.48.32,0,.59-.07.81-.2.22-.13.42-.3.58-.52l.55.43c-.44.68-1.11,1.02-1.99,1.02Zm-.11-4.74c-.37,0-.67.13-.92.4-.25.26-.4.64-.46,1.12h2.65v-.07c-.03-.46-.15-.81-.37-1.07-.22-.25-.52-.38-.9-.38Z"/><path d="m443.82,237.6c.32,0,.6-.1.84-.29.24-.2.37-.44.4-.73h.85c-.02.3-.12.59-.31.86-.19.27-.45.49-.77.65-.32.16-.66.24-1.02.24-.72,0-1.29-.24-1.72-.72-.42-.48-.64-1.14-.64-1.97v-.15c0-.51.09-.97.28-1.37.19-.4.46-.71.81-.93.35-.22.77-.33,1.25-.33.59,0,1.08.18,1.48.53.39.35.6.82.63,1.38h-.85c-.03-.34-.16-.62-.39-.84-.23-.22-.52-.33-.86-.33-.46,0-.81.17-1.07.5-.25.33-.38.81-.38,1.43v.17c0,.61.12,1.08.38,1.41.25.33.61.49,1.07.49Z"/><path d="m450.2,237.72c-.35.41-.87.62-1.55.62-.56,0-.99-.16-1.29-.49-.29-.33-.44-.81-.45-1.45v-3.44h.9v3.41c0,.8.33,1.2.98,1.2.69,0,1.15-.26,1.38-.77v-3.84h.9v5.28h-.86l-.02-.52Z"/><path d="m455.71,238.24c-.05-.1-.09-.29-.13-.56-.42.44-.92.65-1.5.65-.52,0-.95-.15-1.28-.44-.33-.29-.5-.67-.5-1.12,0-.55.21-.98.63-1.28.42-.3,1.01-.46,1.77-.46h.88v-.42c0-.32-.09-.57-.28-.75-.19-.19-.47-.28-.83-.28-.32,0-.59.08-.81.24-.22.16-.33.36-.33.59h-.91c0-.26.09-.52.28-.76.19-.25.44-.44.76-.58.32-.14.67-.21,1.06-.21.61,0,1.08.15,1.43.46.34.3.52.72.54,1.26v2.43c0,.49.06.87.19,1.16v.08h-.95Zm-1.5-.69c.28,0,.55-.07.81-.22s.44-.34.55-.57v-1.08h-.71c-1.11,0-1.66.32-1.66.97,0,.28.09.5.28.66.19.16.43.24.73.24Z"/><path d="m459.12,231.68v1.28h.99v.7h-.99v3.28c0,.21.04.37.13.48.09.11.24.16.45.16.1,0,.25-.02.43-.06v.73c-.24.06-.47.1-.69.1-.4,0-.71-.12-.91-.37s-.31-.59-.31-1.04v-3.28h-.96v-.7h.96v-1.28h.9Z"/><path d="m463.71,233.76c-.14-.02-.29-.03-.44-.03-.59,0-1,.25-1.21.76v3.75h-.9v-5.28h.88v.61c.31-.47.73-.71,1.27-.71.18,0,.31.02.4.07v.84Z"/><path d="m464.21,235.55c0-.52.1-.98.3-1.4.2-.41.49-.73.85-.96.36-.22.78-.34,1.24-.34.72,0,1.3.25,1.75.75s.67,1.16.67,1.99v.06c0,.51-.1.98-.3,1.38-.2.41-.48.73-.84.96s-.79.34-1.26.34c-.72,0-1.3-.25-1.74-.75s-.67-1.16-.67-1.98v-.06Zm.91.11c0,.59.14,1.06.41,1.41.27.35.64.53,1.09.53s.82-.18,1.09-.54c.27-.36.41-.86.41-1.51,0-.58-.14-1.05-.41-1.41-.27-.36-.64-.54-1.1-.54s-.81.18-1.08.53-.41.86-.41,1.52Z"/><path d="m474.74,237.6c.32,0,.6-.1.84-.29.24-.2.37-.44.4-.73h.85c-.02.3-.12.59-.31.86-.19.27-.45.49-.77.65-.32.16-.66.24-1.02.24-.72,0-1.29-.24-1.72-.72-.42-.48-.64-1.14-.64-1.97v-.15c0-.51.09-.97.28-1.37.19-.4.46-.71.81-.93.35-.22.77-.33,1.25-.33.59,0,1.08.18,1.48.53.39.35.6.82.63,1.38h-.85c-.03-.34-.16-.62-.39-.84-.23-.22-.52-.33-.86-.33-.46,0-.81.17-1.07.5-.25.33-.38.81-.38,1.43v.17c0,.61.12,1.08.38,1.41.25.33.61.49,1.07.49Z"/><path d="m481.12,238.24c-.05-.1-.09-.29-.13-.56-.42.44-.92.65-1.5.65-.52,0-.95-.15-1.28-.44-.33-.29-.5-.67-.5-1.12,0-.55.21-.98.63-1.28.42-.3,1.01-.46,1.77-.46h.88v-.42c0-.32-.09-.57-.28-.75-.19-.19-.47-.28-.83-.28-.32,0-.59.08-.81.24-.22.16-.33.36-.33.59h-.91c0-.26.09-.52.28-.76.19-.25.44-.44.76-.58.32-.14.67-.21,1.06-.21.61,0,1.08.15,1.43.46.34.3.52.72.54,1.26v2.43c0,.49.06.87.19,1.16v.08h-.95Zm-1.5-.69c.28,0,.55-.07.81-.22s.44-.34.55-.57v-1.08h-.71c-1.11,0-1.66.32-1.66.97,0,.28.09.5.28.66.19.16.43.24.73.24Z"/><path d="m487.76,235.65c0,.8-.18,1.45-.55,1.94-.37.49-.87.74-1.49.74s-1.15-.2-1.51-.61v2.54h-.9v-7.31h.83l.04.59c.37-.46.88-.68,1.53-.68s1.14.24,1.51.72c.37.48.55,1.14.55,2v.08Zm-.9-.1c0-.6-.13-1.07-.38-1.41s-.6-.52-1.04-.52c-.55,0-.96.24-1.23.73v2.52c.27.48.68.72,1.24.72.43,0,.78-.17,1.03-.51.26-.34.38-.85.38-1.53Z"/><path d="m492.17,238.24c-.05-.1-.09-.29-.13-.56-.42.44-.92.65-1.5.65-.52,0-.95-.15-1.28-.44-.33-.29-.5-.67-.5-1.12,0-.55.21-.98.63-1.28.42-.3,1.01-.46,1.77-.46h.88v-.42c0-.32-.09-.57-.28-.75-.19-.19-.47-.28-.83-.28-.32,0-.59.08-.81.24-.22.16-.33.36-.33.59h-.91c0-.26.09-.52.28-.76.19-.25.44-.44.76-.58.32-.14.67-.21,1.06-.21.61,0,1.08.15,1.43.46.34.3.52.72.54,1.26v2.43c0,.49.06.87.19,1.16v.08h-.95Zm-1.5-.69c.28,0,.55-.07.81-.22s.44-.34.55-.57v-1.08h-.71c-1.11,0-1.66.32-1.66.97,0,.28.09.5.28.66.19.16.43.24.73.24Z"/><path d="m497.42,236.84c0-.24-.09-.43-.28-.57-.18-.13-.5-.25-.96-.35-.46-.1-.82-.21-1.09-.35s-.47-.3-.6-.49c-.13-.19-.19-.41-.19-.67,0-.43.18-.8.55-1.1s.83-.45,1.4-.45c.6,0,1.08.15,1.46.46.37.31.56.71.56,1.19h-.91c0-.25-.11-.46-.32-.64s-.47-.27-.79-.27-.59.07-.77.21-.28.33-.28.56c0,.22.09.38.26.49.17.11.48.22.93.32.45.1.82.22,1.1.36.28.14.49.31.62.5.14.2.2.44.2.72,0,.47-.19.85-.57,1.13-.38.29-.87.43-1.47.43-.42,0-.8-.08-1.12-.22-.33-.15-.58-.36-.76-.63-.18-.27-.28-.56-.28-.87h.9c.02.3.14.54.36.72.23.18.53.27.9.27.34,0,.62-.07.82-.21.21-.14.31-.32.31-.55Z"/><rect class="cls-7" x="509.63" y="29.95" width="10.06" height="10.06"/><rect class="cls-7" x="509.63" y="79.76" width="10.06" height="10.06"/><circle class="cls-2" cx="514.87" cy="179.42" r="24.11"/><circle class="cls-2" cx="415.26" cy="211.98" r="24.83"/><rect class="cls-4" x="95.76" y="101.77" width="65.87" height="65.87" transform="translate(132.94 -51.54) rotate(45)"/><polyline class="cls-4" points="128.69 182.03 128.74 250.65 514.44 250.39 514.66 3.31 128.74 2.38 128.69 88.12"/><polyline class="cls-4" points="175.27 134.7 175.27 213.38 33.06 213.38 33.17 59.07 82.31 59.07 82.11 134.7"/><line class="cls-4" x1="323.41" y1="231.67" x2="323.34" y2="250.52"/><polyline class="cls-4" points="515.11 145.67 428 145.67 425.88 149.75 422.62 141.91 418.7 149.75 414.94 141.91 411.83 149.75 408.08 141.91 404.85 149.75 401.72 142.73 400.09 146.12 323.72 145.83"/><polyline class="cls-4" points="369.91 146.01 369.91 112.69 414.93 112.91 414.94 141.91"/><polyline class="cls-4" points="323.48 212.53 501.12 212.53 514.83 190.14"/><polyline class="cls-4" points="446.6 3.14 446.6 79.88 515.28 118.39"/><polygon class="cls-5" points="159.16 110.65 151.05 118.76 148.09 108.33 159.16 110.65"/><line class="cls-5" x1="151.93" y1="104.49" x2="144.37" y2="112.05"/><polygon class="cls-5" points="112.73 157.07 104.63 165.18 101.66 154.76 112.73 157.07"/><line class="cls-5" x1="105.51" y1="150.92" x2="97.95" y2="158.47"/><polygon class="cls-5" points="106.74 117.97 98.63 109.86 109.05 106.89 106.74 117.97"/><line class="cls-5" x1="112.9" y1="110.74" x2="105.34" y2="103.18"/><polygon class="cls-5" points="153.91 164.33 145.8 156.23 156.22 153.26 153.91 164.33"/><line class="cls-5" x1="160.06" y1="157.1" x2="152.51" y2="149.55"/><polygon class="cls-5" points="453.25 65.59 441.56 65.59 446.94 55.94 453.25 65.59"/><line class="cls-5" x1="452.48" y1="55.94" x2="441.59" y2="55.94"/><polygon class="cls-5" points="329.81 120.04 318.12 120.04 323.5 110.4 329.81 120.04"/><line class="cls-5" x1="329.04" y1="110.4" x2="318.15" y2="110.4"/><polygon class="cls-5" points="476.74 139.08 476.74 150.77 467.1 145.39 476.74 139.08"/><line class="cls-5" x1="467.1" y1="139.85" x2="467.1" y2="150.75"/><polygon class="cls-5" points="500.08 171.07 526.7 171.07 514.46 193.05 500.08 171.07"/><line class="cls-5" x1="501.84" y1="193.05" x2="526.65" y2="193.05"/><polygon class="cls-7" points="404.27 212.53 404.27 199.52 426.24 212.53 404.27 212.53"/><line class="cls-5" x1="426.24" y1="224.94" x2="426.24" y2="200.12"/><line class="cls-7" x1="404.98" y1="224.94" x2="404.98" y2="212.53"/><rect class="cls-7" x="404.27" y="212.53" width="1.41" height="12.41"/><circle class="cls-7" cx="514.5" cy="145.79" r="2.85"/><circle class="cls-7" cx="514.5" cy="117.67" r="2.85"/><circle class="cls-6" cx="514.66" cy="59.35" r="22.63"/><circle class="cls-7" cx="323.48" cy="212.83" r="2.85"/><circle class="cls-7" cx="323.48" cy="250.52" r="2.85"/><circle class="cls-7" cx="323.72" cy="145.83" r="2.85"/><circle class="cls-7" cx="369.91" cy="146.11" r="2.85"/><polygon class="cls-7" points="411.08 130.82 419.15 130.82 415.12 141 411.08 130.82"/><circle class="cls-7" cx="446.6" cy="3.14" r="2.85"/><circle class="cls-7" cx="324.53" cy="3.44" r="2.85"/><circle class="cls-7" cx="225.27" cy="2.85" r="2.85"/><circle class="cls-7" cx="82.03" cy="134.7" r="2.85"/><circle class="cls-7" cx="128.69" cy="88.28" r="2.85"/><circle class="cls-7" cx="175.27" cy="134.7" r="2.85"/><circle class="cls-7" cx="128.69" cy="181.24" r="2.85"/><circle class="cls-7" cx="223.97" cy="250.65" r="2.85"/><path class="cls-4" d="m547.38,4.88s5.23-.12,5.86,3.48c.62,3.6,1.09,49.09,1.09,49.09,0,0-.85,2.48,2.24,3.26s4.53.75,4.53.75c0,0-7.04.17-7.13,4.14-.09,3.97-1.21,47.31-1.21,47.31,0,0-.52,4.47-5.37,5.48"/><line class="cls-4" x1="314.59" y1="228.58" x2="332.43" y2="228.58"/><line class="cls-4" x1="314.56" y1="231.67" x2="332.4" y2="231.67"/><line class="cls-3" x1="356.21" y1="236.22" x2="358.47" y2="227.14"/><path class="cls-3" d="m361.32,227.14s-.77,3.76-1.23,4.94c-.19.5-.76,1.39-1.62,1.39-1.13,0-1.13-1.8-1.13-1.8"/><path class="cls-3" d="m360.23,231.68s-.38,1.76.74,1.8c.79.03,1.1-1.28,1.1-1.28"/><circle class="cls-6" cx="33.06" cy="135.97" r="11.82"/><path class="cls-4" d="m24.78,137.01c.62-1.74,1.67-3.62,3.48-3.99,1.61-.32,3.17.7,4.38,1.82,1.2,1.12,2.34,2.44,3.91,2.92,1.3.4,2.79.13,3.87-.7s1.72-2.2,1.66-3.56"/><polyline class="cls-1" points="253.51 116.85 259.51 118.65 253.51 120.46 247.51 122.26 253.51 124.06 259.51 125.87 253.51 127.67 247.51 129.47 253.51 131.28 259.51 133.08 253.51 134.88 247.51 136.69 253.51 138.49 259.51 140.3 253.51 142.1 247.51 143.91 253.51 145.72"/><polyline class="cls-1" points="225.4 2.38 225.4 116.85 231.38 118.65 225.38 120.46 219.38 122.26 225.38 124.06 231.38 125.87 225.38 127.67 219.38 129.47 225.38 131.28 231.38 133.08 225.38 134.88 219.38 136.69 225.38 138.49 231.38 140.3 225.38 142.1 219.38 143.91 225.27 145.69 225.27 250.65"/><path d="m341.95,230.8c0,1.06-.18,1.84-.54,2.36s-.93.77-1.69.77-1.32-.25-1.68-.75c-.37-.5-.55-1.25-.57-2.25v-1.21c0-1.04.18-1.82.54-2.33s.93-.76,1.7-.76,1.33.25,1.69.73c.36.49.55,1.25.56,2.27v1.17Zm-.9-1.24c0-.76-.11-1.32-.32-1.67-.21-.35-.56-.53-1.02-.53s-.8.17-1.01.52c-.21.35-.32.88-.33,1.61v1.45c0,.77.11,1.34.33,1.7.22.37.56.55,1.01.55s.78-.17.99-.52c.22-.34.33-.89.34-1.63v-1.48Z"/><path d="m343.17,235.25l-.51-.35c.31-.43.46-.87.48-1.32v-.82h.88v.71c0,.33-.08.66-.24.99s-.36.59-.61.79Z"/><path d="m349.52,230.8c0,1.06-.18,1.84-.54,2.36s-.93.77-1.69.77-1.32-.25-1.68-.75c-.37-.5-.55-1.25-.57-2.25v-1.21c0-1.04.18-1.82.54-2.33s.93-.76,1.7-.76,1.33.25,1.69.73c.36.49.55,1.25.56,2.27v1.17Zm-.9-1.24c0-.76-.11-1.32-.32-1.67-.21-.35-.56-.53-1.02-.53s-.8.17-1.01.52c-.21.35-.32.88-.33,1.61v1.45c0,.77.11,1.34.33,1.7.22.37.56.55,1.01.55s.78-.17.99-.52c.22-.34.33-.89.34-1.63v-1.48Z"/><path d="m351.1,230.27l.36-3.54h3.64v.83h-2.88l-.21,1.94c.35-.21.74-.31,1.19-.31.65,0,1.16.21,1.54.64.38.43.57,1.01.57,1.74s-.2,1.31-.59,1.73c-.4.42-.95.63-1.66.63-.63,0-1.14-.17-1.54-.52-.4-.35-.62-.83-.68-1.45h.85c.05.41.2.71.43.92.23.21.54.31.93.31.42,0,.75-.14.99-.43s.36-.68.36-1.19c0-.48-.13-.86-.39-1.14-.26-.29-.6-.43-1.03-.43-.39,0-.7.09-.93.26l-.24.2-.72-.19Z"/><path d="m367.88,230.69h-2.98v3.14h-.94v-7.11h4.4v.77h-3.47v2.44h2.98v.77Z"/></g></svg>