<?xml version="1.0" encoding="UTF-8"?><svg id="Capa_2" xmlns="http://www.w3.org/2000/svg" viewBox="0 0 732.47 485.05"><defs><style>.cls-1{stroke:#302ffe;}.cls-1,.cls-2{stroke-width:2px;}.cls-1,.cls-2,.cls-3{fill:none;stroke-miterlimit:10;}.cls-2,.cls-3{stroke:red;}.cls-4{fill:#302ffe;}.cls-5{fill:red;}</style></defs><g id="Capa_1-2"><path class="cls-3" d="m7.79,306.03c.84-2.34,2.24-4.87,4.68-5.36,2.17-.44,4.27.94,5.89,2.45s3.15,3.28,5.26,3.93c1.75.54,3.75.18,5.2-.94s2.31-2.96,2.23-4.79"/><circle class="cls-1" cx="19.07" cy="304.37" r="18.07"/><polyline class="cls-1" points="19.07 286.3 19.42 213.06 107.96 213.06 107.96 202.83 107.96 223.62"/><polyline class="cls-1" points="113.4 202.83 113.4 213.14 113.4 223.46"/><line class="cls-1" x1="285.81" y1="213.14" x2="113.4" y2="213.14"/><polyline class="cls-1" points="285.81 201.51 285.81 213.14 285.81 224.94"/><polyline class="cls-1" points="368.32 164.72 420.76 164.72 420.76 212.4 577.99 212.4"/><polyline class="cls-1" points="299.67 30.26 299.67 108.2 303.01 110.5 295.99 112.94 302.28 115.39 295.99 117.99 301.65 120.13 295.99 122.42 299.67 126.09 299.67 164.72 363.28 164.72"/><polyline class="cls-1" points="347.68 301.16 347.68 261.07 299.58 261.07"/><line class="cls-1" x1="347.68" y1="442.55" x2="347.68" y2="306.77"/><line class="cls-1" x1="336.95" y1="301.16" x2="357.32" y2="301.16"/><line class="cls-1" x1="336.95" y1="306.77" x2="357.32" y2="306.77"/><polyline class="cls-1" points="577.99 201.51 577.99 212.4 577.99 223.95"/><polyline class="cls-1" points="577.99 212.4 590.69 201.51 590.69 124.14 587.39 121.33 592.67 119.35 587.23 117.04 592.67 114.73 587.89 112.75 592.67 110.28 590.36 108.63 590.36 31.91 165.54 31.91 165.54 109.45 168.01 110.61 163.23 113.25 168.01 115.56 163.23 117.7 167.68 120.18 162.4 122.16 165.37 124.14 165.54 290.11 168.18 291.59 162.4 294.56 167.85 296.71 162.4 299.35 167.85 301.16 162.4 304.46 165.54 305.62 165.37 442.55"/><polyline class="cls-1" points="19.07 322.43 18.87 442.55 299.5 442.55 299.17 305.45 296.2 304.3 301.65 301 296.37 299.18 301.65 297.04 296.04 294.23 301.65 291.76 299.5 289.94 299.67 225.77 285.81 213.14 299.67 200.85 299.67 164.72"/><polyline class="cls-1" points="457.24 31.91 457.24 108.43 459.51 111.05 454.1 112.97 459.51 115.41 454.1 118.2 458.64 119.77 454.1 122.91 456.81 124.3 457.07 290.49 459.51 292.06 454.1 294.33 459.51 296.77 454.1 299.04 459.51 301.16 454.1 303.57 456.81 305.32 456.55 442.55"/><polyline class="cls-1" points="577.99 212.4 590.65 226.49 590.65 261.2 590.65 327.46 592.67 328.68 588.21 330.6 592.67 332.87 587.86 335.14 592.67 337.4 587.34 341.24 590.48 342.46 590.3 442.55"/><polyline class="cls-1" points="590.65 261.2 699.29 261.2 699.29 300.43"/><line class="cls-1" x1="689.01" y1="301.31" x2="709.41" y2="301.31"/><line class="cls-1" x1="689.01" y1="306.89" x2="709.41" y2="306.89"/><polyline class="cls-1" points="699.21 307.76 699.29 362.69 702.61 364.61 696.5 366.18 701.91 369.32 696.5 371.06 702.61 374.03 697.2 376.29 699.21 377.16 699.56 442.55 299.5 442.55"/><polygon class="cls-4" points="582.33 223.52 588.16 217.6 590.65 226.49 582.33 223.52"/><circle class="cls-4" cx="590.65" cy="262.27" r="3.51"/><circle class="cls-4" cx="456.81" cy="212.73" r="3.51"/><circle class="cls-4" cx="299.5" cy="261.27" r="3.51"/><circle class="cls-4" cx="165.21" cy="213.14" r="3.51"/><circle class="cls-4" cx="299.5" cy="164.72" r="3.51"/><circle class="cls-4" cx="456.81" cy="31.91" r="3.51"/><circle class="cls-4" cx="299.67" cy="31.91" r="3.51"/><line class="cls-1" x1="363.28" y1="155.29" x2="363.28" y2="174.85"/><line class="cls-1" x1="368.32" y1="155.29" x2="368.32" y2="174.85"/><polygon class="cls-4" points="291.84 223.52 297.67 217.6 300.15 226.49 291.84 223.52"/><line class="cls-2" x1="420.27" y1="29.14" x2="420.27" y2="19.43"/><line class="cls-2" x1="413.95" y1="19.43" x2="426.42" y2="19.43"/><circle class="cls-4" cx="420.27" cy="31.91" r="3.51"/><circle class="cls-4" cx="590.39" cy="442.55" r="3.51"/><circle class="cls-4" cx="456.59" cy="442.55" r="3.51"/><circle class="cls-4" cx="420.34" cy="442.55" r="3.51"/><line class="cls-2" x1="420.34" y1="446.06" x2="420.34" y2="455.11"/><line class="cls-2" x1="407.67" y1="455.11" x2="433.01" y2="455.11"/><line class="cls-2" x1="411.19" y1="458.64" x2="429.49" y2="458.64"/><line class="cls-2" x1="414.04" y1="462.16" x2="426.63" y2="462.16"/><line class="cls-2" x1="418.58" y1="465.69" x2="422.77" y2="465.69"/><circle class="cls-4" cx="347.68" cy="442.55" r="3.51"/><circle class="cls-4" cx="299.5" cy="442.55" r="3.51"/><circle class="cls-4" cx="165.18" cy="442.55" r="3.51"/><path d="m52.21,298.44l3.25-9.38h1.64l-4.22,11.38h-1.33l-4.21-11.38h1.63l3.23,9.38Z"/><path d="m63,300.43h-1.45v-9.63l-2.91,1.07v-1.31l4.14-1.55h.23v11.43Z"/><path d="m50.49,306.32v.77h-.17c-.7.01-1.26.22-1.68.62s-.66.97-.72,1.7c.37-.43.89-.64,1.53-.64s1.11.22,1.48.65.55,1,.55,1.69c0,.73-.2,1.32-.6,1.76s-.93.66-1.6.66-1.23-.26-1.66-.78c-.42-.52-.63-1.2-.63-2.02v-.35c0-1.31.28-2.31.84-3,.56-.69,1.39-1.04,2.49-1.06h.16Zm-1.19,3.2c-.31,0-.59.09-.85.28s-.44.42-.54.7v.33c0,.59.13,1.06.4,1.42s.59.54.99.54.73-.15.96-.45.35-.69.35-1.18-.12-.88-.35-1.18c-.24-.3-.55-.45-.94-.45Z"/><path d="m54,306.32l2.32,5.8,2.32-5.8h1.22v7.11h-.94v-2.77l.09-2.99-2.33,5.76h-.72l-2.33-5.74.09,2.97v2.77h-.94v-7.11h1.21Z"/><path d="m63.88,312.19l2.03-5.86h1.03l-2.64,7.11h-.83l-2.63-7.11h1.02l2.02,5.86Z"/><path d="m54.32,326.43h-.91v-6.02l-1.82.67v-.82l2.59-.97h.14v7.14Z"/><path d="m59.01,323.13l-.87.9v2.4h-.94v-7.11h.94v3.52l3.16-3.52h1.13l-2.8,3.14,3.02,3.97h-1.12l-2.52-3.31Z"/><path d="m108.95,189.1c-.14,1.2-.58,2.13-1.33,2.79-.75.65-1.74.98-2.98.98-1.34,0-2.42-.48-3.23-1.45-.81-.96-1.21-2.25-1.21-3.87v-1.09c0-1.06.19-1.99.57-2.79.38-.8.91-1.42,1.61-1.85.69-.43,1.49-.64,2.41-.64,1.21,0,2.18.34,2.91,1.01.73.67,1.15,1.61,1.27,2.8h-1.51c-.13-.91-.41-1.57-.85-1.97-.44-.41-1.04-.61-1.82-.61-.96,0-1.71.35-2.25,1.06-.54.71-.82,1.72-.82,3.03v1.1c0,1.24.26,2.22.77,2.95s1.24,1.09,2.16,1.09c.83,0,1.47-.19,1.92-.57s.74-1.04.89-1.97h1.51Z"/><path d="m118.07,192.71h-7.45v-1.04l3.94-4.38c.58-.66.99-1.2,1.21-1.61.22-.41.33-.84.33-1.29,0-.59-.18-1.08-.54-1.46s-.84-.57-1.44-.57c-.72,0-1.28.2-1.68.61s-.6.98-.6,1.71h-1.45c0-1.05.34-1.89,1.01-2.54.67-.65,1.58-.97,2.71-.97,1.06,0,1.89.28,2.51.83.61.55.92,1.29.92,2.21,0,1.12-.71,2.45-2.14,4l-3.05,3.3h5.71v1.18Z"/><path d="m181.06,284.7h-2.67v4.6h-1.51v-11.38h3.77c1.28,0,2.27.29,2.96.88.69.58,1.04,1.43,1.04,2.55,0,.71-.19,1.33-.57,1.85s-.92.92-1.6,1.18l2.67,4.83v.09h-1.61l-2.47-4.6Zm-2.67-1.23h2.3c.74,0,1.34-.19,1.78-.58.44-.39.66-.9.66-1.55,0-.7-.21-1.24-.63-1.62-.42-.38-1.02-.57-1.82-.57h-2.3v4.32Z"/><path d="m187.03,283.6l.58-5.67h5.83v1.34h-4.6l-.34,3.1c.56-.33,1.19-.49,1.9-.49,1.04,0,1.86.34,2.47,1.03s.91,1.61.91,2.78-.32,2.09-.95,2.77-1.52,1.01-2.65,1.01c-1.01,0-1.83-.28-2.46-.84-.64-.56-1-1.33-1.09-2.31h1.37c.09.65.32,1.14.7,1.47s.87.5,1.48.5c.67,0,1.2-.23,1.58-.69s.57-1.09.57-1.9c0-.76-.21-1.37-.62-1.83s-.96-.69-1.65-.69c-.63,0-1.12.14-1.48.41l-.38.31-1.16-.3Z"/><path d="m182.22,104.46h-2.67v4.6h-1.51v-11.38h3.77c1.28,0,2.27.29,2.96.88.69.58,1.04,1.43,1.04,2.55,0,.71-.19,1.33-.57,1.85s-.92.92-1.6,1.18l2.67,4.83v.09h-1.61l-2.47-4.6Zm-2.67-1.23h2.3c.74,0,1.34-.19,1.78-.58.44-.39.66-.9.66-1.55,0-.7-.21-1.24-.63-1.62-.42-.38-1.02-.57-1.82-.57h-2.3v4.32Z"/><path d="m192.28,109.06h-1.45v-9.63l-2.91,1.07v-1.31l4.14-1.55h.23v11.43Z"/><path d="m322.82,102.46h-2.67v4.6h-1.51v-11.38h3.77c1.28,0,2.27.29,2.96.88.69.58,1.04,1.43,1.04,2.55,0,.71-.19,1.33-.57,1.85s-.92.92-1.6,1.18l2.67,4.83v.09h-1.61l-2.47-4.6Zm-2.67-1.23h2.3c.74,0,1.34-.19,1.78-.58.44-.39.66-.9.66-1.55,0-.7-.21-1.24-.63-1.62-.42-.38-1.02-.57-1.82-.57h-2.3v4.32Z"/><path d="m335.58,107.06h-7.45v-1.04l3.94-4.38c.58-.66.99-1.2,1.21-1.61.22-.41.33-.84.33-1.29,0-.59-.18-1.08-.54-1.46s-.84-.57-1.44-.57c-.72,0-1.28.2-1.68.61s-.6.98-.6,1.71h-1.45c0-1.05.34-1.89,1.01-2.54.67-.65,1.58-.97,2.71-.97,1.06,0,1.89.28,2.51.83.61.55.92,1.29.92,2.21,0,1.12-.71,2.45-2.14,4l-3.05,3.3h5.71v1.18Z"/><path d="m366.51,142.48c-.14,1.2-.58,2.13-1.33,2.79-.75.65-1.74.98-2.98.98-1.34,0-2.42-.48-3.23-1.45-.81-.96-1.21-2.25-1.21-3.87v-1.09c0-1.06.19-1.99.57-2.79.38-.8.91-1.42,1.61-1.85.69-.43,1.49-.64,2.41-.64,1.21,0,2.18.34,2.91,1.01.73.67,1.15,1.61,1.27,2.8h-1.51c-.13-.91-.41-1.57-.85-1.97-.44-.41-1.04-.61-1.82-.61-.96,0-1.71.35-2.25,1.06-.54.71-.82,1.72-.82,3.03v1.1c0,1.24.26,2.22.77,2.95s1.24,1.09,2.16,1.09c.83,0,1.47-.19,1.92-.57s.74-1.04.89-1.97h1.51Z"/><path d="m372.93,146.09h-1.45v-9.63l-2.91,1.07v-1.31l4.14-1.55h.23v11.43Z"/><path d="m312.83,284.7h-2.67v4.6h-1.51v-11.38h3.77c1.28,0,2.27.29,2.96.88.69.58,1.04,1.43,1.04,2.55,0,.71-.19,1.33-.57,1.85s-.92.92-1.6,1.18l2.67,4.83v.09h-1.61l-2.47-4.6Zm-2.67-1.23h2.3c.74,0,1.34-.19,1.78-.58.44-.39.66-.9.66-1.55,0-.7-.21-1.24-.63-1.62-.42-.38-1.02-.57-1.82-.57h-2.3v4.32Z"/><path d="m323.81,277.92v1.23h-.27c-1.12.02-2.02.35-2.69,1-.67.65-1.05,1.55-1.16,2.73.6-.69,1.42-1.03,2.45-1.03s1.78.35,2.37,1.05c.59.7.89,1.6.89,2.7,0,1.17-.32,2.11-.96,2.81-.64.7-1.49,1.05-2.57,1.05s-1.97-.42-2.65-1.25c-.68-.84-1.02-1.91-1.02-3.23v-.55c0-2.09.45-3.69,1.34-4.8.89-1.11,2.22-1.67,3.99-1.7h.26Zm-1.9,5.12c-.5,0-.95.15-1.37.45-.42.3-.71.67-.87,1.12v.53c0,.94.21,1.69.63,2.27s.95.86,1.58.86,1.16-.24,1.54-.72c.37-.48.56-1.11.56-1.88s-.19-1.41-.57-1.89c-.38-.48-.88-.72-1.5-.72Z"/><path d="m375.54,304.15c-.14,1.2-.58,2.13-1.33,2.79s-1.74.98-2.98.98c-1.34,0-2.42-.48-3.23-1.45-.81-.96-1.21-2.25-1.21-3.87v-1.09c0-1.06.19-1.99.57-2.79.38-.8.91-1.42,1.61-1.85.69-.43,1.49-.64,2.41-.64,1.21,0,2.18.34,2.91,1.01.73.67,1.15,1.61,1.27,2.8h-1.51c-.13-.91-.41-1.57-.85-1.97-.44-.41-1.04-.61-1.82-.61-.96,0-1.71.35-2.25,1.06-.54.71-.82,1.72-.82,3.03v1.1c0,1.24.26,2.22.77,2.95s1.24,1.09,2.16,1.09c.83,0,1.47-.19,1.92-.57.44-.38.74-1.04.89-1.97h1.51Z"/><path d="m379.32,301.37h1.09c.68-.01,1.22-.19,1.61-.54s.59-.82.59-1.41c0-1.33-.66-2-1.99-2-.62,0-1.12.18-1.5.54s-.56.83-.56,1.42h-1.45c0-.9.33-1.65.99-2.25s1.5-.89,2.51-.89c1.07,0,1.91.28,2.52.85s.91,1.36.91,2.37c0,.5-.16.97-.48,1.44s-.76.81-1.31,1.04c.62.2,1.11.53,1.45.98s.51,1.02.51,1.68c0,1.02-.33,1.83-1,2.43s-1.53.9-2.6.9-1.94-.29-2.61-.87-1-1.34-1-2.29h1.45c0,.6.2,1.08.59,1.44s.91.54,1.57.54c.7,0,1.23-.18,1.6-.55s.55-.89.55-1.57-.2-1.17-.61-1.52-.99-.54-1.76-.55h-1.09v-1.18Z"/><path d="m475.91,287.14h-2.67v4.6h-1.51v-11.38h3.77c1.28,0,2.27.29,2.96.88s1.04,1.43,1.04,2.55c0,.71-.19,1.33-.57,1.85s-.92.92-1.6,1.18l2.67,4.83v.09h-1.61l-2.47-4.6Zm-2.67-1.23h2.3c.75,0,1.34-.19,1.78-.58s.66-.9.66-1.55c0-.7-.21-1.24-.63-1.62s-1.02-.57-1.82-.57h-2.3v4.32Z"/><path d="m488.56,281.18l-4.71,10.56h-1.52l4.7-10.19h-6.16v-1.19h7.69v.81Z"/><path d="m475.91,108.04h-2.67v4.6h-1.51v-11.38h3.77c1.28,0,2.27.29,2.96.88.69.58,1.04,1.43,1.04,2.55,0,.71-.19,1.33-.57,1.85s-.92.92-1.6,1.18l2.67,4.83v.09h-1.61l-2.47-4.6Zm-2.67-1.23h2.3c.74,0,1.34-.19,1.78-.58.44-.39.66-.9.66-1.55,0-.7-.21-1.24-.63-1.62-.42-.38-1.03-.57-1.82-.57h-2.3v4.32Z"/><path d="m483.32,106.25h1.09c.68-.01,1.22-.19,1.61-.54s.59-.82.59-1.41c0-1.33-.66-2-1.99-2-.62,0-1.12.18-1.5.54-.37.36-.56.83-.56,1.42h-1.45c0-.9.33-1.65.99-2.25.66-.6,1.5-.89,2.51-.89,1.07,0,1.91.28,2.52.85s.91,1.36.91,2.37c0,.5-.16.97-.48,1.44s-.76.81-1.31,1.04c.62.2,1.11.53,1.45.98.34.46.51,1.02.51,1.68,0,1.02-.33,1.83-1,2.43-.67.6-1.53.9-2.6.9s-1.94-.29-2.61-.87c-.67-.58-1-1.34-1-2.29h1.45c0,.6.2,1.08.59,1.44s.91.54,1.57.54c.7,0,1.23-.18,1.6-.55.37-.36.55-.89.55-1.57s-.2-1.17-.61-1.52-.99-.54-1.76-.55h-1.09v-1.18Z"/><path d="m612.62,103.04h-2.67v4.6h-1.51v-11.38h3.77c1.28,0,2.27.29,2.96.88s1.04,1.43,1.04,2.55c0,.71-.19,1.33-.57,1.85s-.92.92-1.6,1.18l2.67,4.83v.09h-1.61l-2.47-4.6Zm-2.67-1.23h2.3c.75,0,1.34-.19,1.78-.58s.66-.9.66-1.55c0-.7-.21-1.24-.63-1.62s-1.02-.57-1.82-.57h-2.3v4.32Z"/><path d="m624.03,103.82h1.58v1.18h-1.58v2.64h-1.45v-2.64h-5.18v-.85l5.09-7.88h1.54v7.55Zm-4.99,0h3.54v-5.58l-.17.31-3.37,5.27Z"/><path d="m610.13,322.18h-2.67v4.6h-1.51v-11.38h3.77c1.28,0,2.27.29,2.96.88.69.58,1.04,1.43,1.04,2.55,0,.71-.19,1.33-.57,1.85s-.92.92-1.6,1.18l2.67,4.83v.09h-1.61l-2.47-4.6Zm-2.67-1.23h2.3c.74,0,1.34-.19,1.78-.58.44-.39.66-.9.66-1.55,0-.7-.21-1.24-.63-1.62-.42-.38-1.03-.57-1.82-.57h-2.3v4.32Z"/><path d="m622.33,318.38c0,.57-.15,1.07-.45,1.52-.3.44-.71.79-1.21,1.04.59.25,1.06.63,1.41,1.12.35.49.52,1.04.52,1.66,0,.98-.33,1.77-1,2.35s-1.54.88-2.62.88-1.97-.29-2.63-.88c-.66-.59-.99-1.37-.99-2.35,0-.61.17-1.17.5-1.66s.8-.87,1.39-1.12c-.51-.25-.9-.6-1.2-1.04-.29-.44-.44-.95-.44-1.51,0-.96.31-1.72.92-2.28.61-.56,1.42-.84,2.43-.84s1.81.28,2.43.84.93,1.32.93,2.28Zm-1.18,5.3c0-.64-.2-1.15-.61-1.55-.4-.4-.93-.6-1.58-.6s-1.17.2-1.57.59c-.39.4-.59.92-.59,1.56s.19,1.15.57,1.52.92.55,1.6.55,1.21-.19,1.59-.56c.38-.37.58-.88.58-1.52Zm-2.17-7.24c-.57,0-1.03.18-1.38.53s-.53.83-.53,1.43.17,1.05.52,1.4c.35.36.81.54,1.39.54s1.04-.18,1.39-.54c.35-.36.52-.82.52-1.4s-.18-1.05-.54-1.41-.82-.55-1.37-.55Z"/><path d="m720.89,305.82c-.14,1.2-.58,2.13-1.33,2.79s-1.74.98-2.98.98c-1.34,0-2.42-.48-3.23-1.45s-1.21-2.25-1.21-3.87v-1.09c0-1.06.19-1.99.57-2.79s.91-1.42,1.61-1.85,1.5-.64,2.41-.64c1.21,0,2.18.34,2.91,1.01s1.15,1.61,1.27,2.8h-1.51c-.13-.91-.41-1.57-.85-1.97s-1.04-.61-1.82-.61c-.96,0-1.71.35-2.25,1.06s-.82,1.72-.82,3.03v1.1c0,1.24.26,2.22.77,2.95s1.24,1.09,2.16,1.09c.83,0,1.47-.19,1.92-.57s.74-1.04.89-1.97h1.51Z"/><path d="m728.66,305.61h1.58v1.18h-1.58v2.64h-1.45v-2.64h-5.18v-.85l5.09-7.88h1.54v7.55Zm-4.99,0h3.54v-5.58l-.17.31-3.37,5.27Z"/><path d="m712.33,369.65h-2.67v4.6h-1.51v-11.38h3.77c1.28,0,2.27.29,2.96.88s1.04,1.43,1.04,2.55c0,.71-.19,1.33-.57,1.85s-.92.92-1.6,1.18l2.67,4.83v.09h-1.61l-2.47-4.6Zm-2.67-1.23h2.3c.75,0,1.34-.19,1.78-.58s.66-.9.66-1.55c0-.7-.21-1.24-.63-1.62s-1.02-.57-1.82-.57h-2.3v4.32Z"/><path d="m723.18,369.25c-.3.36-.66.65-1.08.87s-.88.33-1.38.33c-.66,0-1.23-.16-1.71-.48s-.86-.78-1.13-1.36-.4-1.23-.4-1.94c0-.76.14-1.45.43-2.05s.7-1.08,1.23-1.4,1.15-.48,1.86-.48c1.12,0,2.01.42,2.66,1.26s.97,1.99.97,3.44v.42c0,2.21-.44,3.83-1.31,4.85s-2.2,1.54-3.96,1.57h-.28v-1.23h.3c1.19-.02,2.11-.33,2.75-.93s.99-1.55,1.05-2.85Zm-2.23,0c.48,0,.93-.15,1.34-.45s.71-.66.89-1.1v-.58c0-.95-.21-1.72-.62-2.31s-.93-.89-1.56-.89-1.15.24-1.53.73-.58,1.13-.58,1.93.19,1.42.56,1.92.87.75,1.5.75Z"/><path d="m616.32,204.92c0,1.1-.17,2.05-.52,2.84-.35.79-.84,1.42-1.47,1.86l2.03,1.59-1.02.95-2.4-1.91c-.38.09-.77.14-1.19.14-.9,0-1.69-.22-2.38-.66-.69-.44-1.23-1.07-1.61-1.88s-.58-1.76-.59-2.83v-.82c0-1.09.19-2.06.57-2.9.38-.84.92-1.48,1.61-1.93s1.49-.67,2.39-.67,1.72.22,2.42.66,1.23,1.08,1.61,1.91.56,1.8.56,2.91v.73Zm-1.5-.73c0-1.34-.27-2.37-.8-3.1-.53-.73-1.3-1.09-2.29-1.09s-1.69.36-2.23,1.08c-.54.72-.82,1.72-.84,3v.84c0,1.3.27,2.33.82,3.08.54.75,1.3,1.12,2.27,1.12s1.72-.35,2.25-1.06.8-1.72.82-3.04v-.84Z"/><path d="m625.71,210.24h-7.45v-1.04l3.94-4.38c.58-.66.99-1.2,1.21-1.61.22-.41.33-.84.33-1.29,0-.59-.18-1.08-.54-1.46s-.84-.57-1.44-.57c-.72,0-1.28.2-1.68.61s-.6.98-.6,1.71h-1.45c0-1.05.34-1.89,1.01-2.54.67-.65,1.58-.97,2.71-.97,1.06,0,1.89.28,2.51.83.61.55.92,1.29.92,2.21,0,1.12-.71,2.45-2.14,4l-3.05,3.3h5.71v1.18Z"/><path class="cls-5" d="m411.43,9.54l3.25-9.38h1.64l-4.22,11.38h-1.33l-4.21-11.38h1.63l3.23,9.38Z"/><path class="cls-5" d="m426.11,7.92c-.14,1.2-.58,2.13-1.33,2.79s-1.74.98-2.98.98c-1.34,0-2.42-.48-3.23-1.45s-1.21-2.25-1.21-3.87v-1.09c0-1.06.19-1.99.57-2.79s.91-1.42,1.61-1.85,1.5-.64,2.41-.64c1.21,0,2.18.34,2.91,1.01s1.15,1.61,1.27,2.8h-1.51c-.13-.91-.41-1.57-.85-1.97s-1.04-.61-1.82-.61c-.96,0-1.71.35-2.25,1.06s-.82,1.72-.82,3.03v1.1c0,1.24.26,2.22.77,2.95s1.24,1.09,2.16,1.09c.83,0,1.47-.19,1.92-.57s.74-1.04.89-1.97h1.51Z"/><path class="cls-5" d="m436.52,7.92c-.14,1.2-.58,2.13-1.33,2.79s-1.74.98-2.98.98c-1.34,0-2.42-.48-3.23-1.45s-1.21-2.25-1.21-3.87v-1.09c0-1.06.19-1.99.57-2.79s.91-1.42,1.61-1.85,1.5-.64,2.41-.64c1.21,0,2.18.34,2.91,1.01s1.15,1.61,1.27,2.8h-1.51c-.13-.91-.41-1.57-.85-1.97s-1.04-.61-1.82-.61c-.96,0-1.71.35-2.25,1.06s-.82,1.72-.82,3.03v1.1c0,1.24.26,2.22.77,2.95s1.24,1.09,2.16,1.09c.83,0,1.47-.19,1.92-.57s.74-1.04.89-1.97h1.51Z"/><path class="cls-5" d="m414.09,483.41c-.39.55-.92.96-1.61,1.24s-1.49.41-2.41.41-1.75-.22-2.47-.65-1.27-1.05-1.67-1.86-.59-1.73-.61-2.79v-.99c0-1.71.4-3.04,1.2-3.98s1.92-1.41,3.37-1.41c1.19,0,2.14.3,2.87.91s1.17,1.47,1.33,2.58h-1.5c-.28-1.51-1.18-2.27-2.69-2.27-1,0-1.77.35-2.29,1.06s-.78,1.73-.79,3.07v.93c0,1.28.29,2.29.88,3.05s1.37,1.13,2.37,1.13c.56,0,1.05-.06,1.48-.19.42-.12.77-.33,1.05-.63v-2.55h-2.63v-1.23h4.12v4.17Z"/><path class="cls-5" d="m425.33,484.9h-1.51l-5.73-8.77v8.77h-1.51v-11.38h1.51l5.74,8.8v-8.8h1.49v11.38Z"/><path class="cls-5" d="m428,484.9v-11.38h3.21c.99,0,1.86.22,2.62.66s1.35,1.06,1.76,1.87.62,1.73.63,2.78v.73c0,1.07-.21,2.01-.62,2.82s-1,1.43-1.77,1.86-1.66.65-2.68.66h-3.15Zm1.5-10.15v8.92h1.58c1.16,0,2.06-.36,2.7-1.08s.96-1.74.96-3.07v-.66c0-1.29-.3-2.3-.91-3.01s-1.47-1.08-2.58-1.09h-1.75Z"/><path d="m107.68,232.91c-.09.75-.37,1.33-.83,1.74-.47.41-1.09.61-1.86.61-.84,0-1.51-.3-2.02-.9s-.76-1.41-.76-2.42v-.68c0-.66.12-1.24.35-1.74s.57-.89,1-1.16c.43-.27.93-.4,1.5-.4.76,0,1.36.21,1.82.63.46.42.72,1,.8,1.75h-.94c-.08-.57-.26-.98-.53-1.23s-.65-.38-1.14-.38c-.6,0-1.07.22-1.41.67-.34.44-.51,1.07-.51,1.89v.69c0,.77.16,1.39.48,1.84s.77.68,1.35.68c.52,0,.92-.12,1.2-.35.28-.24.46-.65.55-1.23h.94Z"/><path d="m112.08,235.16c-.05-.1-.09-.29-.13-.56-.42.44-.92.65-1.5.65-.52,0-.95-.15-1.28-.44-.33-.29-.5-.67-.5-1.12,0-.55.21-.98.63-1.28.42-.3,1.01-.46,1.77-.46h.88v-.42c0-.32-.09-.57-.28-.75-.19-.19-.47-.28-.83-.28-.32,0-.59.08-.81.24s-.33.36-.33.59h-.91c0-.26.09-.52.28-.76.19-.25.44-.44.76-.58s.67-.21,1.06-.21c.61,0,1.09.15,1.43.46.35.3.52.72.54,1.26v2.43c0,.49.06.87.19,1.16v.08h-.95Zm-1.5-.69c.28,0,.55-.07.81-.22s.44-.34.55-.57v-1.08h-.71c-1.11,0-1.66.32-1.66.97,0,.28.09.5.28.66s.43.24.73.24Z"/><path d="m118.72,232.58c0,.8-.18,1.45-.55,1.94s-.87.74-1.49.74-1.15-.2-1.51-.61v2.54h-.9v-7.31h.83l.04.59c.37-.46.88-.68,1.53-.68s1.14.24,1.51.72.55,1.14.55,2v.08Zm-.9-.1c0-.6-.13-1.07-.38-1.41s-.6-.52-1.04-.52c-.55,0-.96.24-1.23.73v2.52c.27.48.68.72,1.24.72.43,0,.78-.17,1.03-.51.26-.34.38-.85.38-1.53Z"/><path d="m105.63,247.16h-.91v-6.02l-1.82.67v-.82l2.59-.97h.14v7.14Z"/><path d="m111.64,246.64c-.35.41-.87.62-1.55.62-.56,0-.99-.16-1.29-.49-.29-.33-.44-.81-.45-1.45v-3.44h.9v3.41c0,.8.33,1.2.98,1.2.69,0,1.15-.26,1.38-.77v-3.84h.9v5.28h-.86l-.02-.52Z"/><path d="m117.95,244.02h-2.98v3.14h-.94v-7.11h4.4v.77h-3.47v2.44h2.98v.77Z"/><path d="m178.57,297.56h-1.67v2.88h-.94v-7.11h2.35c.8,0,1.42.18,1.85.55s.65.9.65,1.59c0,.44-.12.83-.36,1.16s-.57.57-1,.74l1.67,3.02v.06h-1.01l-1.54-2.88Zm-1.67-.77h1.44c.47,0,.84-.12,1.11-.36s.41-.56.41-.97c0-.44-.13-.78-.39-1.01-.26-.24-.64-.35-1.14-.36h-1.44v2.7Z"/><path d="m184.17,300.53c-.72,0-1.3-.24-1.75-.71-.45-.47-.67-1.1-.67-1.89v-.17c0-.52.1-.99.3-1.4.2-.41.48-.73.84-.97.36-.23.75-.35,1.17-.35.69,0,1.22.23,1.6.68s.57,1.1.57,1.94v.38h-3.58c.01.52.17.94.46,1.26.29.32.66.48,1.11.48.32,0,.59-.07.81-.2s.42-.3.58-.52l.55.43c-.44.68-1.11,1.02-1.99,1.02Zm-.11-4.74c-.36,0-.67.13-.92.4-.25.26-.4.64-.46,1.12h2.65v-.07c-.03-.46-.15-.81-.37-1.07-.22-.25-.52-.38-.9-.38Z"/><path d="m190.35,299.03c0-.24-.09-.43-.28-.57-.18-.13-.5-.25-.96-.35s-.82-.21-1.09-.35-.47-.3-.6-.49-.19-.41-.19-.67c0-.43.18-.8.55-1.1s.83-.45,1.4-.45c.6,0,1.08.15,1.46.46s.56.71.56,1.19h-.91c0-.25-.1-.46-.31-.64s-.47-.27-.79-.27-.59.07-.77.21-.28.33-.28.56c0,.22.09.38.26.49s.48.22.94.32.82.22,1.1.36.49.31.62.5c.14.2.2.44.2.72,0,.47-.19.85-.57,1.13-.38.29-.87.43-1.47.43-.42,0-.8-.08-1.12-.22s-.58-.36-.76-.63c-.18-.27-.28-.56-.28-.87h.9c.02.3.14.54.36.72.23.18.52.27.9.27.34,0,.62-.07.82-.21.21-.14.31-.32.31-.55Z"/><path d="m195.31,300.43h-.91v-6.02l-1.82.67v-.82l2.59-.97h.14v7.14Z"/><path d="m183.87,312.43h-.91v-6.02l-1.82.67v-.82l2.59-.97h.14v7.14Z"/><path d="m188.56,309.13l-.87.9v2.4h-.94v-7.11h.94v3.52l3.16-3.52h1.13l-2.8,3.14,3.02,3.97h-1.12l-2.52-3.31Z"/><path d="m309.15,297.66h-1.67v2.88h-.94v-7.11h2.35c.8,0,1.42.18,1.85.55s.65.9.65,1.59c0,.44-.12.83-.36,1.16s-.57.57-1,.74l1.67,3.02v.06h-1.01l-1.54-2.88Zm-1.67-.77h1.44c.47,0,.84-.12,1.11-.36s.41-.56.41-.97c0-.44-.13-.78-.39-1.01-.26-.24-.64-.35-1.14-.36h-1.44v2.7Z"/><path d="m314.75,300.63c-.72,0-1.3-.24-1.75-.71-.45-.47-.67-1.1-.67-1.89v-.17c0-.52.1-.99.3-1.4.2-.41.48-.73.84-.97.36-.23.75-.35,1.17-.35.69,0,1.22.23,1.6.68s.57,1.1.57,1.94v.38h-3.58c.01.52.17.94.46,1.26.29.32.66.48,1.11.48.32,0,.59-.07.81-.2s.42-.3.58-.52l.55.43c-.44.68-1.11,1.02-1.99,1.02Zm-.11-4.74c-.36,0-.67.13-.92.4-.25.26-.4.64-.46,1.12h2.65v-.07c-.03-.46-.15-.81-.37-1.07-.22-.25-.52-.38-.9-.38Z"/><path d="m320.93,299.13c0-.24-.09-.43-.28-.57-.18-.13-.5-.25-.96-.35s-.82-.21-1.09-.35-.47-.3-.6-.49-.19-.41-.19-.67c0-.43.18-.8.55-1.1s.83-.45,1.4-.45c.6,0,1.08.15,1.46.46s.56.71.56,1.19h-.91c0-.25-.1-.46-.31-.64s-.47-.27-.79-.27-.59.07-.77.21-.28.33-.28.56c0,.22.09.38.26.49s.48.22.94.32.82.22,1.1.36.49.31.62.5c.14.2.2.44.2.72,0,.47-.19.85-.57,1.13-.38.29-.87.43-1.47.43-.42,0-.8-.08-1.12-.22s-.58-.36-.76-.63c-.18-.27-.28-.56-.28-.87h.9c.02.3.14.54.36.72.23.18.52.27.9.27.34,0,.62-.07.82-.21.21-.14.31-.32.31-.55Z"/><path d="m325.89,300.53h-.91v-6.02l-1.82.67v-.82l2.59-.97h.14v7.14Z"/><path d="m314.45,312.53h-.91v-6.02l-1.82.67v-.82l2.59-.97h.14v7.14Z"/><path d="m319.13,309.23l-.87.9v2.4h-.94v-7.11h.94v3.52l3.16-3.52h1.13l-2.8,3.14,3.02,3.97h-1.12l-2.52-3.31Z"/><path d="m373.19,317.08c-.09.75-.37,1.33-.83,1.74-.47.41-1.09.61-1.86.61-.84,0-1.51-.3-2.02-.9s-.76-1.41-.76-2.42v-.68c0-.66.12-1.24.35-1.74s.57-.89,1-1.16c.43-.27.93-.4,1.5-.4.76,0,1.36.21,1.82.63.46.42.72,1,.8,1.75h-.94c-.08-.57-.26-.98-.53-1.23s-.65-.38-1.14-.38c-.6,0-1.07.22-1.41.67-.34.44-.51,1.07-.51,1.89v.69c0,.77.16,1.39.48,1.84s.77.68,1.35.68c.52,0,.92-.12,1.2-.35.28-.24.46-.65.55-1.23h.94Z"/><path d="m377.59,319.34c-.05-.1-.09-.29-.13-.56-.42.44-.92.65-1.5.65-.52,0-.95-.15-1.28-.44-.33-.29-.5-.67-.5-1.12,0-.55.21-.98.63-1.28.42-.3,1.01-.46,1.77-.46h.88v-.42c0-.32-.09-.57-.28-.75-.19-.19-.47-.28-.83-.28-.32,0-.59.08-.81.24-.22.16-.33.36-.33.59h-.91c0-.26.09-.52.28-.76.19-.25.44-.44.76-.58.32-.14.67-.21,1.06-.21.61,0,1.08.15,1.43.46.34.3.52.72.54,1.26v2.43c0,.49.06.87.19,1.16v.08h-.95Zm-1.5-.69c.28,0,.55-.07.81-.22s.44-.34.55-.57v-1.08h-.71c-1.11,0-1.66.32-1.66.97,0,.28.09.5.28.66.19.16.43.24.73.24Z"/><path d="m384.23,316.76c0,.8-.18,1.45-.55,1.94-.37.49-.87.74-1.49.74s-1.15-.2-1.51-.61v2.54h-.9v-7.31h.83l.04.59c.37-.46.88-.68,1.53-.68s1.14.24,1.51.72c.37.48.55,1.14.55,2v.08Zm-.9-.1c0-.6-.13-1.07-.38-1.41s-.6-.52-1.04-.52c-.55,0-.96.24-1.23.73v2.52c.27.48.68.72,1.24.72.43,0,.78-.17,1.03-.51.26-.34.38-.85.38-1.53Z"/><path d="m370.03,331.34h-4.66v-.65l2.46-2.73c.36-.41.62-.75.75-1.01.14-.26.21-.53.21-.8,0-.37-.11-.68-.34-.91s-.52-.36-.9-.36c-.45,0-.8.13-1.05.38-.25.26-.37.61-.37,1.07h-.9c0-.65.21-1.18.63-1.59s.99-.61,1.69-.61c.66,0,1.18.17,1.57.52.38.35.58.81.58,1.38,0,.7-.45,1.53-1.34,2.5l-1.9,2.07h3.57v.74Z"/><path d="m375.44,328.31c0,1.06-.18,1.84-.54,2.36s-.93.77-1.69.77-1.32-.25-1.68-.75c-.36-.5-.55-1.25-.57-2.25v-1.21c0-1.04.18-1.82.54-2.33s.93-.76,1.7-.76,1.33.25,1.69.73c.36.49.55,1.25.56,2.27v1.17Zm-.9-1.24c0-.76-.11-1.32-.32-1.67-.21-.35-.55-.53-1.02-.53s-.8.17-1.01.52-.32.88-.33,1.61v1.45c0,.77.11,1.34.33,1.7.22.37.56.55,1.01.55s.78-.17.99-.52c.22-.34.33-.89.34-1.63v-1.48Z"/><path d="m379.96,330.82c-.35.41-.87.62-1.55.62-.56,0-.99-.16-1.29-.49-.29-.33-.44-.81-.45-1.45v-3.44h.9v3.41c0,.8.33,1.2.98,1.2.69,0,1.15-.26,1.38-.77v-3.84h.9v5.28h-.86l-.02-.52Z"/><path d="m386.27,328.2h-2.98v3.14h-.94v-7.11h4.4v.77h-3.47v2.44h2.98v.77Z"/><path d="m363.06,185.8c-.09.75-.37,1.33-.83,1.74-.47.41-1.09.61-1.86.61-.84,0-1.51-.3-2.02-.9s-.76-1.41-.76-2.42v-.68c0-.66.12-1.24.35-1.74s.57-.89,1-1.16c.43-.27.93-.4,1.5-.4.76,0,1.36.21,1.82.63.46.42.72,1,.8,1.75h-.94c-.08-.57-.26-.98-.53-1.23s-.65-.38-1.14-.38c-.6,0-1.07.22-1.41.67-.34.44-.51,1.07-.51,1.89v.69c0,.77.16,1.39.48,1.84s.77.68,1.35.68c.52,0,.92-.12,1.2-.35.28-.24.46-.65.55-1.23h.94Z"/><path d="m367.46,188.05c-.05-.1-.09-.29-.13-.56-.42.44-.92.65-1.5.65-.52,0-.95-.15-1.28-.44-.33-.29-.5-.67-.5-1.12,0-.55.21-.98.63-1.28.42-.3,1.01-.46,1.77-.46h.88v-.42c0-.32-.09-.57-.28-.75-.19-.19-.47-.28-.83-.28-.32,0-.59.08-.81.24s-.33.36-.33.59h-.91c0-.26.09-.52.28-.76.19-.25.44-.44.76-.58s.67-.21,1.06-.21c.61,0,1.09.15,1.43.46.35.3.52.72.54,1.26v2.43c0,.49.06.87.19,1.16v.08h-.95Zm-1.5-.69c.28,0,.55-.07.81-.22s.44-.34.55-.57v-1.08h-.71c-1.11,0-1.66.32-1.66.97,0,.28.09.5.28.66s.43.24.73.24Z"/><path d="m374.1,185.47c0,.8-.18,1.45-.55,1.94s-.87.74-1.49.74-1.15-.2-1.51-.61v2.54h-.9v-7.31h.83l.04.59c.37-.46.88-.68,1.53-.68s1.14.24,1.51.72c.37.48.55,1.14.55,2v.08Zm-.9-.1c0-.6-.13-1.07-.38-1.41s-.6-.52-1.04-.52c-.55,0-.96.24-1.23.73v2.52c.27.48.68.72,1.24.72.43,0,.78-.17,1.03-.51.26-.34.38-.85.38-1.53Z"/><path d="m361.02,200.05h-.91v-6.02l-1.82.67v-.82l2.59-.97h.14v7.14Z"/><path d="m367.02,199.53c-.35.41-.87.62-1.55.62-.56,0-.99-.16-1.29-.49-.29-.33-.44-.81-.45-1.45v-3.44h.9v3.41c0,.8.33,1.2.98,1.2.69,0,1.15-.26,1.38-.77v-3.84h.9v5.28h-.86l-.02-.52Z"/><path d="m373.33,196.91h-2.98v3.14h-.94v-7.11h4.4v.77h-3.47v2.44h2.98v.77Z"/><path d="m718.91,319.12c-.09.75-.37,1.33-.83,1.74-.47.41-1.09.61-1.86.61-.84,0-1.51-.3-2.02-.9-.51-.6-.76-1.41-.76-2.42v-.68c0-.66.12-1.24.35-1.74.24-.5.57-.89,1-1.16.43-.27.93-.4,1.5-.4.75,0,1.36.21,1.82.63.46.42.72,1,.8,1.75h-.94c-.08-.57-.26-.98-.53-1.23-.27-.25-.65-.38-1.14-.38-.6,0-1.07.22-1.41.67-.34.44-.51,1.07-.51,1.89v.69c0,.77.16,1.39.48,1.84s.77.68,1.35.68c.52,0,.92-.12,1.2-.35.28-.24.46-.65.55-1.23h.94Z"/><path d="m723.31,321.37c-.05-.1-.09-.29-.13-.56-.42.44-.92.65-1.5.65-.52,0-.95-.15-1.28-.44-.33-.29-.5-.67-.5-1.12,0-.55.21-.98.63-1.28.42-.3,1.01-.46,1.77-.46h.88v-.42c0-.32-.09-.57-.28-.75-.19-.19-.47-.28-.83-.28-.32,0-.59.08-.81.24-.22.16-.33.36-.33.59h-.91c0-.26.09-.52.28-.76.19-.25.44-.44.76-.58.32-.14.67-.21,1.06-.21.61,0,1.08.15,1.43.46.34.3.52.72.54,1.26v2.43c0,.49.06.87.19,1.16v.08h-.95Zm-1.5-.69c.28,0,.55-.07.81-.22s.44-.34.55-.57v-1.08h-.71c-1.11,0-1.66.32-1.66.97,0,.28.09.5.28.66.19.16.43.24.73.24Z"/><path d="m729.95,318.79c0,.8-.18,1.45-.55,1.94-.37.49-.87.74-1.49.74s-1.15-.2-1.51-.61v2.54h-.9v-7.31h.83l.04.59c.37-.46.88-.68,1.53-.68s1.14.24,1.51.72c.37.48.55,1.14.55,2v.08Zm-.9-.1c0-.6-.13-1.07-.38-1.41s-.6-.52-1.04-.52c-.55,0-.96.24-1.23.73v2.52c.27.48.68.72,1.24.72.43,0,.78-.17,1.03-.51.26-.34.38-.85.38-1.53Z"/><path d="m715.74,333.37h-4.66v-.65l2.46-2.73c.37-.41.62-.75.75-1.01.14-.26.21-.53.21-.8,0-.37-.11-.68-.34-.91s-.52-.36-.9-.36c-.45,0-.8.13-1.05.38-.25.26-.37.61-.37,1.07h-.9c0-.65.21-1.18.63-1.59.42-.4.99-.61,1.69-.61.66,0,1.18.17,1.57.52.38.35.58.81.58,1.38,0,.7-.45,1.53-1.34,2.5l-1.9,2.07h3.57v.74Z"/><path d="m721.16,330.34c0,1.06-.18,1.84-.54,2.36s-.93.77-1.69.77-1.32-.25-1.68-.75c-.36-.5-.55-1.25-.57-2.25v-1.21c0-1.04.18-1.82.54-2.33s.93-.76,1.7-.76,1.33.25,1.69.73c.36.49.55,1.25.56,2.27v1.17Zm-.9-1.24c0-.76-.11-1.32-.32-1.67-.21-.35-.55-.53-1.02-.53s-.8.17-1.01.52c-.21.35-.32.88-.33,1.61v1.45c0,.77.11,1.34.33,1.7.22.37.56.55,1.01.55s.78-.17.99-.52c.22-.34.33-.89.34-1.63v-1.48Z"/><path d="m725.67,332.85c-.35.41-.87.62-1.55.62-.56,0-.99-.16-1.29-.49-.29-.33-.44-.81-.45-1.45v-3.44h.9v3.41c0,.8.33,1.2.98,1.2.69,0,1.15-.26,1.38-.77v-3.84h.9v5.28h-.86l-.02-.52Z"/><path d="m731.99,330.23h-2.98v3.14h-.94v-7.11h4.4v.77h-3.47v2.44h2.98v.77Z"/><path d="m472.12,299.8h-1.67v2.88h-.94v-7.11h2.35c.8,0,1.42.18,1.85.55.43.36.65.9.65,1.59,0,.44-.12.83-.36,1.16s-.57.57-1,.74l1.67,3.02v.06h-1.01l-1.54-2.88Zm-1.67-.77h1.44c.47,0,.84-.12,1.11-.36.27-.24.41-.56.41-.97,0-.44-.13-.78-.39-1.01-.26-.24-.64-.35-1.14-.36h-1.44v2.7Z"/><path d="m477.72,302.78c-.72,0-1.3-.24-1.75-.71-.45-.47-.67-1.1-.67-1.89v-.17c0-.52.1-.99.3-1.4.2-.41.48-.73.84-.97.36-.23.75-.35,1.17-.35.69,0,1.22.23,1.6.68s.57,1.1.57,1.94v.38h-3.58c.01.52.17.94.46,1.26.29.32.66.48,1.11.48.32,0,.59-.07.81-.2.22-.13.42-.3.58-.52l.55.43c-.44.68-1.11,1.02-1.99,1.02Zm-.11-4.74c-.36,0-.67.13-.92.4-.25.26-.4.64-.46,1.12h2.65v-.07c-.03-.46-.15-.81-.37-1.07-.22-.25-.52-.38-.9-.38Z"/><path d="m483.9,301.28c0-.24-.09-.43-.28-.57-.18-.13-.5-.25-.96-.35-.46-.1-.82-.21-1.09-.35s-.47-.3-.6-.49c-.13-.19-.19-.41-.19-.67,0-.43.18-.8.55-1.1s.83-.45,1.4-.45c.6,0,1.08.15,1.46.46.37.31.56.71.56,1.19h-.91c0-.25-.1-.46-.31-.64s-.47-.27-.79-.27-.59.07-.77.21-.28.33-.28.56c0,.22.09.38.26.49.17.11.48.22.94.32.45.1.82.22,1.1.36.28.14.49.31.62.5.13.2.2.44.2.72,0,.47-.19.85-.57,1.13-.38.29-.87.43-1.47.43-.42,0-.8-.08-1.12-.22-.33-.15-.58-.36-.76-.63-.18-.27-.28-.56-.28-.87h.9c.02.3.14.54.36.72.23.18.52.27.9.27.34,0,.62-.07.82-.21.21-.14.31-.32.31-.55Z"/><path d="m488.86,302.68h-.91v-6.02l-1.82.67v-.82l2.59-.97h.14v7.14Z"/><path d="m477.42,314.68h-.91v-6.02l-1.82.67v-.82l2.59-.97h.14v7.14Z"/><path d="m482.11,311.37l-.87.9v2.4h-.94v-7.11h.94v3.52l3.16-3.52h1.13l-2.8,3.14,3.02,3.97h-1.12l-2.52-3.31Z"/><path d="m609.25,116.68h-1.67v2.88h-.94v-7.11h2.35c.8,0,1.42.18,1.85.55.43.36.65.9.65,1.59,0,.44-.12.83-.36,1.16s-.57.57-1,.74l1.67,3.02v.06h-1.01l-1.54-2.88Zm-1.67-.77h1.44c.47,0,.84-.12,1.11-.36.27-.24.41-.56.41-.97,0-.44-.13-.78-.39-1.01-.26-.24-.64-.35-1.14-.36h-1.44v2.7Z"/><path d="m614.85,119.65c-.72,0-1.3-.24-1.75-.71-.45-.47-.67-1.1-.67-1.89v-.17c0-.52.1-.99.3-1.4.2-.41.48-.73.84-.97.36-.23.75-.35,1.17-.35.69,0,1.22.23,1.6.68s.57,1.1.57,1.94v.38h-3.58c.01.52.17.94.46,1.26.29.32.66.48,1.11.48.32,0,.59-.07.81-.2.22-.13.42-.3.58-.52l.55.43c-.44.68-1.11,1.02-1.99,1.02Zm-.11-4.74c-.36,0-.67.13-.92.4-.25.26-.4.64-.46,1.12h2.65v-.07c-.03-.46-.15-.81-.37-1.07-.22-.25-.52-.38-.9-.38Z"/><path d="m621.03,118.15c0-.24-.09-.43-.28-.57-.18-.13-.5-.25-.96-.35-.46-.1-.82-.21-1.09-.35s-.47-.3-.6-.49c-.13-.19-.19-.41-.19-.67,0-.43.18-.8.55-1.1s.83-.45,1.4-.45c.6,0,1.08.15,1.46.46.37.31.56.71.56,1.19h-.91c0-.25-.1-.46-.31-.64s-.47-.27-.79-.27-.59.07-.77.21-.28.33-.28.56c0,.22.09.38.26.49.17.11.48.22.94.32.45.1.82.22,1.1.36.28.14.49.31.62.5.13.2.2.44.2.72,0,.47-.19.85-.57,1.13-.38.29-.87.43-1.47.43-.42,0-.8-.08-1.12-.22-.33-.15-.58-.36-.76-.63-.18-.27-.28-.56-.28-.87h.9c.02.3.14.54.36.72.23.18.52.27.9.27.34,0,.62-.07.82-.21.21-.14.31-.32.31-.55Z"/><path d="m625.99,119.55h-.91v-6.02l-1.82.67v-.82l2.59-.97h.14v7.14Z"/><path d="m610.03,129.16h.99v.74h-.99v1.65h-.91v-1.65h-3.24v-.53l3.18-4.93h.96v4.72Zm-3.12,0h2.21v-3.49l-.11.2-2.1,3.29Z"/><path d="m611.94,131.08c0-.16.05-.29.14-.39s.23-.16.42-.16.33.05.42.16c.1.1.14.23.14.39s-.05.28-.14.38c-.1.1-.24.15-.42.15s-.32-.05-.42-.15-.14-.23-.14-.38Z"/><path d="m619.05,124.95l-2.94,6.6h-.95l2.93-6.37h-3.85v-.74h4.8v.51Z"/><path d="m624.6,128.25l-.87.9v2.4h-.94v-7.11h.94v3.52l3.16-3.52h1.13l-2.8,3.14,3.02,3.97h-1.12l-2.52-3.31Z"/><path d="m472.79,121.57h-1.67v2.88h-.94v-7.11h2.35c.8,0,1.42.18,1.85.55.43.36.65.9.65,1.59,0,.44-.12.83-.36,1.16s-.57.57-1,.74l1.67,3.02v.06h-1.01l-1.54-2.88Zm-1.67-.77h1.44c.47,0,.84-.12,1.11-.36.27-.24.41-.56.41-.97,0-.44-.13-.78-.39-1.01-.26-.24-.64-.35-1.14-.36h-1.44v2.7Z"/><path d="m478.39,124.54c-.72,0-1.3-.24-1.75-.71-.45-.47-.67-1.1-.67-1.89v-.17c0-.52.1-.99.3-1.4.2-.41.48-.73.84-.97.36-.23.75-.35,1.17-.35.69,0,1.22.23,1.6.68s.57,1.1.57,1.94v.38h-3.58c.01.52.17.94.46,1.26.29.32.66.48,1.11.48.32,0,.59-.07.81-.2.22-.13.42-.3.58-.52l.55.43c-.44.68-1.11,1.02-1.99,1.02Zm-.11-4.74c-.36,0-.67.13-.92.4-.25.26-.4.64-.46,1.12h2.65v-.07c-.03-.46-.15-.81-.37-1.07-.22-.25-.52-.38-.9-.38Z"/><path d="m484.57,123.04c0-.24-.09-.43-.28-.57-.18-.13-.5-.25-.96-.35-.46-.1-.82-.21-1.09-.35s-.47-.3-.6-.49c-.13-.19-.19-.41-.19-.67,0-.43.18-.8.55-1.1s.83-.45,1.4-.45c.6,0,1.08.15,1.46.46.37.31.56.71.56,1.19h-.91c0-.25-.1-.46-.31-.64s-.47-.27-.79-.27-.59.07-.77.21-.28.33-.28.56c0,.22.09.38.26.49.17.11.48.22.94.32.45.1.82.22,1.1.36.28.14.49.31.62.5.13.2.2.44.2.72,0,.47-.19.85-.57,1.13-.38.29-.87.43-1.47.43-.42,0-.8-.08-1.12-.22-.33-.15-.58-.36-.76-.63-.18-.27-.28-.56-.28-.87h.9c.02.3.14.54.36.72.23.18.52.27.9.27.34,0,.62-.07.82-.21.21-.14.31-.32.31-.55Z"/><path d="m489.52,124.44h-.91v-6.02l-1.82.67v-.82l2.59-.97h.14v7.14Z"/><path d="m473.57,134.05h.99v.74h-.99v1.65h-.91v-1.65h-3.24v-.53l3.18-4.93h.96v4.72Zm-3.12,0h2.21v-3.49l-.11.2-2.1,3.29Z"/><path d="m475.48,135.97c0-.16.05-.29.14-.39s.23-.16.42-.16.33.05.42.16c.1.1.14.23.14.39s-.05.28-.14.38c-.1.1-.24.15-.42.15s-.32-.05-.42-.15-.14-.23-.14-.38Z"/><path d="m482.59,129.84l-2.94,6.6h-.95l2.93-6.37h-3.85v-.74h4.8v.51Z"/><path d="m488.13,133.14l-.87.9v2.4h-.94v-7.11h.94v3.52l3.16-3.52h1.13l-2.8,3.14,3.02,3.97h-1.12l-2.52-3.31Z"/><path d="m319.87,114.43h-1.67v2.88h-.94v-7.11h2.35c.8,0,1.42.18,1.85.55s.65.9.65,1.59c0,.44-.12.83-.36,1.16s-.57.57-1,.74l1.67,3.02v.06h-1.01l-1.54-2.88Zm-1.67-.77h1.44c.47,0,.84-.12,1.11-.36s.41-.56.41-.97c0-.44-.13-.78-.39-1.01-.26-.24-.64-.35-1.14-.36h-1.44v2.7Z"/><path d="m325.47,117.4c-.72,0-1.3-.24-1.75-.71-.45-.47-.67-1.1-.67-1.89v-.17c0-.52.1-.99.3-1.4.2-.41.48-.73.84-.97.36-.23.75-.35,1.17-.35.69,0,1.22.23,1.6.68s.57,1.1.57,1.94v.38h-3.58c.01.52.17.94.46,1.26.29.32.66.48,1.11.48.32,0,.59-.07.81-.2s.42-.3.58-.52l.55.43c-.44.68-1.11,1.02-1.99,1.02Zm-.11-4.74c-.36,0-.67.13-.92.4-.25.26-.4.64-.46,1.12h2.65v-.07c-.03-.46-.15-.81-.37-1.07-.22-.25-.52-.38-.9-.38Z"/><path d="m331.65,115.9c0-.24-.09-.43-.28-.57-.18-.13-.5-.25-.96-.35s-.82-.21-1.09-.35-.47-.3-.6-.49-.19-.41-.19-.67c0-.43.18-.8.55-1.1s.83-.45,1.4-.45c.6,0,1.08.15,1.46.46s.56.71.56,1.19h-.91c0-.25-.1-.46-.31-.64s-.47-.27-.79-.27-.59.07-.77.21-.28.33-.28.56c0,.22.09.38.26.49s.48.22.94.32.82.22,1.1.36.49.31.62.5c.14.2.2.44.2.72,0,.47-.19.85-.57,1.13-.38.29-.87.43-1.47.43-.42,0-.8-.08-1.12-.22s-.58-.36-.76-.63c-.18-.27-.28-.56-.28-.87h.9c.02.3.14.54.36.72.23.18.52.27.9.27.34,0,.62-.07.82-.21.21-.14.31-.32.31-.55Z"/><path d="m336.61,117.3h-.91v-6.02l-1.82.67v-.82l2.59-.97h.14v7.14Z"/><path d="m320.65,126.91h.99v.74h-.99v1.65h-.91v-1.65h-3.24v-.53l3.18-4.93h.96v4.72Zm-3.12,0h2.21v-3.49l-.11.2-2.1,3.29Z"/><path d="m322.56,128.83c0-.16.05-.29.14-.39s.23-.16.42-.16.33.05.42.16.14.23.14.39-.05.28-.14.38-.24.15-.42.15-.32-.05-.42-.15-.14-.23-.14-.38Z"/><path d="m329.67,122.7l-2.94,6.6h-.95l2.93-6.37h-3.85v-.74h4.8v.51Z"/><path d="m335.21,126l-.87.9v2.4h-.94v-7.11h.94v3.52l3.16-3.52h1.13l-2.8,3.14,3.02,3.97h-1.12l-2.52-3.31Z"/><path d="m178.59,116.78h-1.67v2.88h-.94v-7.11h2.35c.8,0,1.42.18,1.85.55s.65.9.65,1.59c0,.44-.12.83-.36,1.16s-.57.57-1,.74l1.67,3.02v.06h-1.01l-1.54-2.88Zm-1.67-.77h1.44c.47,0,.84-.12,1.11-.36s.41-.56.41-.97c0-.44-.13-.78-.39-1.01-.26-.24-.64-.35-1.14-.36h-1.44v2.7Z"/><path d="m184.19,119.75c-.72,0-1.3-.24-1.75-.71-.45-.47-.67-1.1-.67-1.89v-.17c0-.52.1-.99.3-1.4.2-.41.48-.73.84-.97.36-.23.75-.35,1.17-.35.69,0,1.22.23,1.6.68s.57,1.1.57,1.94v.38h-3.58c.01.52.17.94.46,1.26.29.32.66.48,1.11.48.32,0,.59-.07.81-.2s.42-.3.58-.52l.55.43c-.44.68-1.11,1.02-1.99,1.02Zm-.11-4.74c-.36,0-.67.13-.92.4-.25.26-.4.64-.46,1.12h2.65v-.07c-.03-.46-.15-.81-.37-1.07-.22-.25-.52-.38-.9-.38Z"/><path d="m190.37,118.25c0-.24-.09-.43-.28-.57-.18-.13-.5-.25-.96-.35s-.82-.21-1.09-.35-.47-.3-.6-.49-.19-.41-.19-.67c0-.43.18-.8.55-1.1s.83-.45,1.4-.45c.6,0,1.08.15,1.46.46s.56.71.56,1.19h-.91c0-.25-.1-.46-.31-.64s-.47-.27-.79-.27-.59.07-.77.21-.28.33-.28.56c0,.22.09.38.26.49s.48.22.94.32.82.22,1.1.36.49.31.62.5c.14.2.2.44.2.72,0,.47-.19.85-.57,1.13-.38.29-.87.43-1.47.43-.42,0-.8-.08-1.12-.22s-.58-.36-.76-.63c-.18-.27-.28-.56-.28-.87h.9c.02.3.14.54.36.72.23.18.52.27.9.27.34,0,.62-.07.82-.21.21-.14.31-.32.31-.55Z"/><path d="m195.33,119.65h-.91v-6.02l-1.82.67v-.82l2.59-.97h.14v7.14Z"/><path d="m179.37,129.26h.99v.74h-.99v1.65h-.91v-1.65h-3.24v-.53l3.18-4.93h.96v4.72Zm-3.12,0h2.21v-3.49l-.11.2-2.1,3.29Z"/><path d="m181.29,131.18c0-.16.05-.29.14-.39s.23-.16.42-.16.33.05.42.16.14.23.14.39-.05.28-.14.38-.24.15-.42.15-.32-.05-.42-.15-.14-.23-.14-.38Z"/><path d="m188.4,125.05l-2.94,6.6h-.95l2.93-6.37h-3.85v-.74h4.8v.51Z"/><path d="m193.94,128.35l-.87.9v2.4h-.94v-7.11h.94v3.52l3.16-3.52h1.13l-2.8,3.14,3.02,3.97h-1.12l-2.52-3.31Z"/><path d="m601.39,223.95h-4.66v-.65l2.46-2.73c.37-.41.62-.75.75-1.01.14-.26.21-.53.21-.8,0-.37-.11-.68-.34-.91s-.52-.36-.9-.36c-.45,0-.8.13-1.05.38-.25.26-.37.61-.37,1.07h-.9c0-.65.21-1.18.63-1.59.42-.4.99-.61,1.69-.61.66,0,1.18.17,1.57.52.38.35.58.81.58,1.38,0,.7-.45,1.53-1.34,2.5l-1.9,2.07h3.57v.74Z"/><path d="m608.04,223.95h-.94l-3.58-5.48v5.48h-.94v-7.11h.94l3.59,5.5v-5.5h.93v7.11Z"/><path d="m610.79,219.96h.68c.43,0,.76-.12,1.01-.34s.37-.51.37-.88c0-.83-.42-1.25-1.25-1.25-.39,0-.7.11-.93.33-.23.22-.35.52-.35.89h-.9c0-.56.21-1.03.62-1.4.41-.37.93-.56,1.57-.56.67,0,1.2.18,1.58.53s.57.85.57,1.48c0,.31-.1.61-.3.9s-.47.51-.82.65c.39.12.69.33.91.62.21.29.32.64.32,1.05,0,.64-.21,1.14-.62,1.52-.42.37-.96.56-1.63.56s-1.21-.18-1.63-.54c-.42-.36-.63-.84-.63-1.43h.91c0,.37.12.67.37.9s.57.34.98.34c.44,0,.77-.11,1-.34.23-.23.35-.55.35-.98s-.13-.73-.38-.95-.62-.33-1.1-.34h-.68v-.74Z"/><path d="m619.75,223.95h-4.66v-.65l2.46-2.73c.37-.41.62-.75.75-1.01.14-.26.21-.53.21-.8,0-.37-.11-.68-.34-.91s-.52-.36-.9-.36c-.45,0-.8.13-1.05.38-.25.26-.37.61-.37,1.07h-.9c0-.65.21-1.18.63-1.59.42-.4.99-.61,1.69-.61.66,0,1.18.17,1.57.52.38.35.58.81.58,1.38,0,.7-.45,1.53-1.34,2.5l-1.9,2.07h3.57v.74Z"/><path d="m624.17,220.83c-.19.22-.41.41-.68.54-.26.14-.55.21-.86.21-.41,0-.77-.1-1.07-.3-.3-.2-.54-.49-.71-.85-.17-.37-.25-.77-.25-1.21,0-.48.09-.9.27-1.28s.44-.67.77-.87.72-.3,1.16-.3c.7,0,1.26.26,1.66.79.41.53.61,1.24.61,2.15v.26c0,1.38-.27,2.39-.82,3.03-.55.64-1.37.96-2.48.98h-.18v-.77h.19c.75-.01,1.32-.21,1.72-.58s.62-.97.65-1.78Zm-1.39,0c.3,0,.58-.09.84-.28.25-.19.44-.42.56-.69v-.36c0-.59-.13-1.07-.39-1.45-.26-.37-.58-.56-.98-.56s-.72.15-.96.46c-.24.3-.36.71-.36,1.2s.12.88.35,1.2c.23.31.54.47.93.47Z"/><path d="m630.78,220.92c0,1.06-.18,1.84-.54,2.36s-.93.77-1.69.77-1.32-.25-1.68-.75c-.36-.5-.55-1.25-.57-2.25v-1.21c0-1.04.18-1.82.54-2.33s.93-.76,1.7-.76,1.33.25,1.69.73c.36.49.55,1.25.56,2.27v1.17Zm-.9-1.24c0-.76-.11-1.32-.32-1.67-.21-.35-.55-.53-1.02-.53s-.8.17-1.01.52c-.21.35-.32.88-.33,1.61v1.45c0,.77.11,1.34.33,1.7.22.37.56.55,1.01.55s.78-.17.99-.52c.22-.34.33-.89.34-1.63v-1.48Z"/><path d="m635.75,221.56h.99v.74h-.99v1.65h-.91v-1.65h-3.24v-.53l3.18-4.93h.96v4.72Zm-3.12,0h2.21v-3.49l-.11.2-2.1,3.29Z"/><path d="m607.37,335.63h-1.67v2.88h-.94v-7.11h2.35c.8,0,1.42.18,1.85.55.43.36.65.9.65,1.59,0,.44-.12.83-.36,1.16-.24.33-.57.57-1,.74l1.67,3.02v.06h-1.01l-1.54-2.88Zm-1.67-.77h1.44c.46,0,.84-.12,1.11-.36.27-.24.41-.56.41-.97,0-.44-.13-.78-.39-1.01-.26-.24-.64-.35-1.14-.36h-1.44v2.7Z"/><path d="m612.97,338.6c-.72,0-1.3-.24-1.75-.71-.45-.47-.67-1.1-.67-1.89v-.17c0-.52.1-.99.3-1.4.2-.41.48-.73.84-.97.36-.23.75-.35,1.17-.35.69,0,1.22.23,1.6.68s.57,1.1.57,1.94v.38h-3.58c.01.52.17.94.46,1.26.29.32.66.48,1.11.48.32,0,.59-.07.81-.2s.42-.3.58-.52l.55.43c-.44.68-1.11,1.02-1.99,1.02Zm-.11-4.74c-.36,0-.67.13-.92.4-.25.26-.4.64-.46,1.12h2.65v-.07c-.03-.46-.15-.81-.37-1.07-.22-.25-.52-.38-.9-.38Z"/><path d="m619.15,337.1c0-.24-.09-.43-.28-.57-.18-.13-.5-.25-.96-.35-.46-.1-.82-.21-1.09-.35-.27-.14-.47-.3-.6-.49-.13-.19-.19-.41-.19-.67,0-.43.18-.8.55-1.1.37-.3.83-.45,1.4-.45.6,0,1.08.15,1.46.46.37.31.56.71.56,1.19h-.91c0-.25-.1-.46-.32-.64-.21-.18-.47-.27-.79-.27s-.59.07-.77.21-.28.33-.28.56c0,.22.09.38.26.49s.48.22.94.32c.45.1.82.22,1.1.36s.49.31.62.5c.13.2.2.44.2.72,0,.47-.19.85-.57,1.13-.38.29-.87.43-1.47.43-.42,0-.8-.08-1.12-.22s-.58-.36-.76-.63c-.18-.27-.28-.56-.28-.87h.9c.02.3.14.54.36.72.23.18.53.27.9.27.34,0,.62-.07.82-.21.21-.14.31-.32.31-.55Z"/><path d="m624.11,338.5h-.91v-6.02l-1.82.67v-.82l2.59-.97h.14v7.14Z"/><path d="m612.67,350.5h-.91v-6.02l-1.82.67v-.82l2.59-.97h.14v7.14Z"/><path d="m617.35,347.2l-.87.9v2.4h-.94v-7.11h.94v3.52l3.16-3.52h1.13l-2.8,3.14,3.02,3.97h-1.12l-2.52-3.31Z"/><path d="m709.38,382.17h-1.67v2.88h-.94v-7.11h2.35c.8,0,1.42.18,1.85.55.43.36.65.9.65,1.59,0,.44-.12.83-.36,1.16s-.57.57-1,.74l1.67,3.02v.06h-1.01l-1.54-2.88Zm-1.67-.77h1.44c.47,0,.84-.12,1.11-.36.27-.24.41-.56.41-.97,0-.44-.13-.78-.39-1.01-.26-.24-.64-.35-1.14-.36h-1.44v2.7Z"/><path d="m714.98,385.15c-.72,0-1.3-.24-1.75-.71-.45-.47-.67-1.1-.67-1.89v-.17c0-.52.1-.99.3-1.4.2-.41.48-.73.84-.97.36-.23.75-.35,1.17-.35.69,0,1.22.23,1.6.68s.57,1.1.57,1.94v.38h-3.58c.01.52.17.94.46,1.26.29.32.66.48,1.11.48.32,0,.59-.07.81-.2.22-.13.42-.3.58-.52l.55.43c-.44.68-1.11,1.02-1.99,1.02Zm-.11-4.74c-.36,0-.67.13-.92.4-.25.26-.4.64-.46,1.12h2.65v-.07c-.03-.46-.15-.81-.37-1.07-.22-.25-.52-.38-.9-.38Z"/><path d="m721.16,383.65c0-.24-.09-.43-.28-.57-.18-.13-.5-.25-.96-.35-.46-.1-.82-.21-1.09-.35s-.47-.3-.6-.49c-.13-.19-.19-.41-.19-.67,0-.43.18-.8.55-1.1s.83-.45,1.4-.45c.6,0,1.08.15,1.46.46.37.31.56.71.56,1.19h-.91c0-.25-.1-.46-.31-.64s-.47-.27-.79-.27-.59.07-.77.21-.28.33-.28.56c0,.22.09.38.26.49.17.11.48.22.94.32.45.1.82.22,1.1.36.28.14.49.31.62.5.13.2.2.44.2.72,0,.47-.19.85-.57,1.13-.38.29-.87.43-1.47.43-.42,0-.8-.08-1.12-.22-.33-.15-.58-.36-.76-.63-.18-.27-.28-.56-.28-.87h.9c.02.3.14.54.36.72.23.18.52.27.9.27.34,0,.62-.07.82-.21.21-.14.31-.32.31-.55Z"/><path d="m726.12,385.05h-.91v-6.02l-1.82.67v-.82l2.59-.97h.14v7.14Z"/><path d="m712.45,393.48l.36-3.54h3.64v.83h-2.88l-.21,1.94c.35-.21.74-.31,1.19-.31.65,0,1.16.21,1.54.64.38.43.57,1.01.57,1.74s-.2,1.31-.59,1.73c-.4.42-.95.63-1.66.63-.63,0-1.14-.17-1.54-.52-.4-.35-.62-.83-.68-1.45h.85c.06.41.2.71.43.92.23.21.54.31.93.31.42,0,.75-.14.99-.43s.36-.68.36-1.19c0-.48-.13-.86-.39-1.14-.26-.29-.6-.43-1.03-.43-.39,0-.7.09-.93.26l-.24.2-.72-.19Z"/><path d="m722.11,394.02c0,1.06-.18,1.84-.54,2.36s-.93.77-1.69.77-1.32-.25-1.68-.75c-.36-.5-.55-1.25-.57-2.25v-1.21c0-1.04.18-1.82.54-2.33s.93-.76,1.7-.76,1.33.25,1.69.73c.36.49.55,1.25.56,2.27v1.17Zm-.9-1.24c0-.76-.11-1.32-.32-1.67-.21-.35-.55-.53-1.02-.53s-.8.17-1.01.52c-.21.35-.32.88-.33,1.61v1.45c0,.77.11,1.34.33,1.7.22.37.56.55,1.01.55s.78-.17.99-.52c.22-.34.33-.89.34-1.63v-1.48Z"/></g></svg>