<?xml version="1.0" encoding="UTF-8"?><svg id="Capa_2" xmlns="http://www.w3.org/2000/svg" viewBox="0 0 505.29 300.2"><defs><style>.cls-1{fill:#f9f9f9;}.cls-1,.cls-2,.cls-3,.cls-4,.cls-5{stroke:#1d1d1b;stroke-miterlimit:10;}.cls-1,.cls-3,.cls-4,.cls-5{stroke-width:2px;}.cls-2,.cls-5{fill:none;}.cls-3,.cls-6{fill:#1d1d1b;}.cls-4{fill:#fff;}</style></defs><g id="Capa_1-2"><rect class="cls-6" x="298" y="291.35" width="8.46" height="8.46" rx="4.23" ry="4.23"/><rect class="cls-6" x="149.25" y="291.74" width="8.46" height="8.46" rx="4.23" ry="4.23"/><rect class="cls-6" x="297.85" y="0" width="8.46" height="8.46" rx="4.23" ry="4.23"/><rect class="cls-6" x="414.03" y="0" width="8.46" height="8.46" rx="4.23" ry="4.23"/><polyline class="cls-5" points="14.42 171.19 14.42 3.68 486.4 3.68 485.93 186.1 470.3 195.12"/><polyline class="cls-5" points="469.91 199.79 246.49 199.79 246.56 222.19"/><polyline class="cls-5" points="293.53 188.75 246.49 188.75 246.55 101.8"/><line class="cls-5" x1="302.24" y1="4.23" x2="301.92" y2="177.86"/><polyline class="cls-5" points="328.99 174.44 328.99 101.8 205.49 101.8"/><rect class="cls-5" x="93.65" y="60.89" width="111.83" height="75.9"/><rect class="cls-1" x="89.45" y="86.87" width="7" height="24.73"/><polyline class="cls-5" points="107.96 93.4 71.01 109.89 71.01 222.19 289.64 222.19"/><polygon class="cls-3" points="102.3 90.8 106.06 98.84 114.3 90.8 102.3 90.8"/><polygon class="cls-3" points="146.15 52.47 146.15 68.07 159.03 60.89 146.15 52.47"/><line class="cls-3" x1="159.03" y1="53.5" x2="159.03" y2="68.04"/><polygon class="cls-3" points="161.04 129 161.04 144.59 148.16 137.42 161.04 129"/><line class="cls-3" x1="148.16" y1="130.03" x2="148.16" y2="144.56"/><polygon class="cls-3" points="426.68 71.77 411.08 71.77 418.25 58.89 426.68 71.77"/><line class="cls-3" x1="425.65" y1="58.89" x2="411.11" y2="58.89"/><rect class="cls-6" x="201.44" y="97.79" width="8.46" height="8.46" rx="4.23" ry="4.23"/><rect class="cls-6" x="242.24" y="97.79" width="8.46" height="8.46" rx="4.23" ry="4.23"/><rect class="cls-6" x="297.85" y="97.79" width="8.46" height="8.46" rx="4.23" ry="4.23"/><rect class="cls-6" x="242.26" y="217.46" width="8.46" height="8.46" rx="4.23" ry="4.23"/><rect class="cls-6" x="149.25" y="217.96" width="8.46" height="8.46" rx="4.23" ry="4.23"/><rect class="cls-4" x="260.05" y="98.31" width="26.27" height="7.21"/><polyline class="cls-5" points="418.26 6.5 418.03 124.16 486.09 124.16"/><rect class="cls-6" x="481.86" y="119.93" width="8.46" height="8.46" rx="4.23" ry="4.23"/><circle class="cls-4" cx="486.09" cy="83.2" r="12.86"/><rect class="cls-4" x="386.05" y="196.86" width="26.03" height="6.87"/><rect class="cls-4" x="289.64" y="173.26" width="48.48" height="55.39"/><line class="cls-5" x1="470.3" y1="188.34" x2="470.3" y2="211.24"/><polyline class="cls-5" points="470.3 204.17 485.93 215.34 485.93 296.54 14.02 294.91 14.42 186.5"/><polygon class="cls-6" points="475.1 214.03 480.07 205.02 485.93 215.34 475.1 214.03"/><line class="cls-5" x1="302.24" y1="228.65" x2="302.24" y2="293.66"/><line class="cls-5" x1="153.48" y1="265.3" x2="153.48" y2="292.43"/><line class="cls-5" x1="153.48" y1="222.19" x2="153.48" y2="260.05"/><line class="cls-5" x1="143.49" y1="260.05" x2="163.53" y2="260.05"/><line class="cls-5" x1="143.49" y1="265.3" x2="163.53" y2="265.3"/><line class="cls-5" y1="171.16" x2="28.31" y2="171.16"/><line class="cls-5" x1="8.14" y1="173.87" x2="21.09" y2="173.87"/><line class="cls-5" y1="176.67" x2="28.31" y2="176.67"/><line class="cls-5" x1="8.14" y1="179.52" x2="20.82" y2="179.52"/><line class="cls-5" y1="182.97" x2="28.52" y2="182.97"/><line class="cls-5" x1="8.14" y1="185.9" x2="20.82" y2="185.9"/><line class="cls-3" x1="329.45" y1="228.65" x2="329.45" y2="238.58"/><path d="m22.41,164.43v-11.38h3.72c1.23,0,2.16.25,2.79.77.62.51.93,1.27.93,2.27,0,.53-.15,1-.45,1.41-.3.41-.71.73-1.23.95.61.17,1.1.5,1.46.98.36.48.54,1.06.54,1.72,0,1.02-.33,1.82-.99,2.41-.66.58-1.6.88-2.8.88h-3.95Zm1.5-6.52h2.27c.66,0,1.18-.16,1.57-.49.39-.33.59-.78.59-1.34,0-.63-.18-1.08-.55-1.37-.36-.28-.92-.43-1.66-.43h-2.22v3.62Zm0,1.2v4.09h2.48c.7,0,1.25-.18,1.65-.54.4-.36.61-.86.61-1.5,0-1.37-.75-2.05-2.23-2.05h-2.5Z"/><path d="m36.74,164.43h-1.45v-9.63l-2.91,1.07v-1.31l4.14-1.55h.23v11.43Z"/><path d="m131.01,264.26c-.14,1.2-.58,2.13-1.33,2.79-.75.65-1.74.98-2.98.98-1.34,0-2.42-.48-3.23-1.45-.81-.96-1.21-2.25-1.21-3.87v-1.09c0-1.06.19-1.99.57-2.79.38-.8.91-1.42,1.61-1.85.69-.43,1.49-.64,2.41-.64,1.21,0,2.18.34,2.91,1.01.73.67,1.15,1.61,1.27,2.8h-1.51c-.13-.91-.41-1.57-.85-1.97-.44-.41-1.04-.61-1.82-.61-.96,0-1.71.35-2.25,1.06-.54.71-.82,1.72-.82,3.03v1.1c0,1.24.26,2.22.77,2.95s1.24,1.09,2.16,1.09c.83,0,1.47-.19,1.92-.57s.74-1.04.89-1.97h1.51Z"/><path d="m137.43,267.87h-1.45v-9.63l-2.91,1.07v-1.31l4.14-1.55h.23v11.43Z"/><path d="m146.67,121.58v-11.38h3.21c.99,0,1.86.22,2.62.66.76.44,1.35,1.06,1.76,1.87s.62,1.73.63,2.78v.73c0,1.07-.21,2.01-.62,2.82s-1.01,1.43-1.77,1.86c-.77.43-1.66.65-2.68.66h-3.15Zm1.5-10.15v8.92h1.58c1.16,0,2.06-.36,2.7-1.08.64-.72.96-1.74.96-3.07v-.66c0-1.29-.3-2.3-.91-3.01-.61-.72-1.47-1.08-2.58-1.09h-1.75Z"/><path d="m161.53,121.58h-1.45v-9.63l-2.91,1.07v-1.31l4.14-1.55h.23v11.43Z"/><path d="m64.29,93.34v4.45h-1.5v-11.38h4.2c1.24,0,2.22.32,2.93.95.71.64,1.06,1.48,1.06,2.52,0,1.1-.35,1.95-1.04,2.55-.69.6-1.68.89-2.96.89h-2.68Zm0-1.23h2.7c.8,0,1.42-.19,1.84-.57.43-.38.64-.92.64-1.64,0-.68-.21-1.22-.64-1.63-.43-.41-1.01-.62-1.76-.63h-2.78v4.47Z"/><path d="m77.26,97.79h-1.45v-9.63l-2.91,1.07v-1.31l4.14-1.55h.23v11.43Z"/><path d="m145.18,85.46v-11.38h3.21c.99,0,1.86.22,2.62.66.76.44,1.35,1.06,1.76,1.87s.62,1.73.63,2.78v.73c0,1.07-.21,2.01-.62,2.82s-1.01,1.43-1.77,1.86c-.77.43-1.66.65-2.68.66h-3.15Zm1.5-10.15v8.92h1.58c1.16,0,2.06-.36,2.7-1.08.64-.72.96-1.74.96-3.07v-.66c0-1.29-.3-2.3-.91-3.01-.61-.72-1.47-1.08-2.58-1.09h-1.75Z"/><path d="m162.75,85.46h-7.45v-1.04l3.94-4.38c.58-.66.99-1.2,1.21-1.61.22-.41.33-.84.33-1.29,0-.59-.18-1.08-.54-1.46s-.84-.57-1.44-.57c-.72,0-1.28.2-1.68.61s-.6.98-.6,1.71h-1.45c0-1.05.34-1.89,1.01-2.54.67-.65,1.58-.97,2.71-.97,1.06,0,1.89.28,2.51.83.61.55.92,1.29.92,2.21,0,1.12-.71,2.45-2.14,4l-3.05,3.3h5.71v1.18Z"/><path d="m269.26,86.2h-2.67v4.6h-1.51v-11.38h3.77c1.28,0,2.27.29,2.96.88s1.04,1.43,1.04,2.55c0,.71-.19,1.33-.57,1.85s-.92.92-1.6,1.18l2.67,4.83v.09h-1.61l-2.47-4.6Zm-2.67-1.23h2.3c.75,0,1.34-.19,1.78-.58s.66-.9.66-1.55c0-.7-.21-1.24-.63-1.62s-1.02-.57-1.82-.57h-2.3v4.32Z"/><path d="m279.31,90.8h-1.45v-9.63l-2.91,1.07v-1.31l4.14-1.55h.23v11.43Z"/><path d="m304.93,196.86h-1.5v-11.38h1.5v11.38Z"/><path d="m316.04,193.25c-.14,1.2-.58,2.13-1.33,2.79-.75.65-1.74.98-2.98.98-1.34,0-2.42-.48-3.23-1.45-.81-.96-1.21-2.25-1.21-3.87v-1.09c0-1.06.19-1.99.57-2.79.38-.8.91-1.42,1.61-1.85.69-.43,1.49-.64,2.41-.64,1.21,0,2.18.34,2.91,1.01.73.67,1.15,1.61,1.27,2.8h-1.51c-.13-.91-.41-1.57-.85-1.97-.44-.41-1.04-.61-1.82-.61-.96,0-1.71.35-2.25,1.06-.54.71-.82,1.72-.82,3.03v1.1c0,1.24.26,2.22.77,2.95s1.24,1.09,2.16,1.09c.83,0,1.47-.19,1.92-.57s.74-1.04.89-1.97h1.51Z"/><path d="m322.46,196.86h-1.45v-9.63l-2.91,1.07v-1.31l4.14-1.55h.23v11.43Z"/><path d="m394.5,217.82h-2.67v4.6h-1.51v-11.38h3.77c1.28,0,2.27.29,2.96.88.69.58,1.04,1.43,1.04,2.55,0,.71-.19,1.33-.57,1.85s-.92.92-1.6,1.18l2.67,4.83v.09h-1.61l-2.47-4.6Zm-2.67-1.23h2.3c.74,0,1.34-.19,1.78-.58.44-.39.66-.9.66-1.55,0-.7-.21-1.24-.63-1.62-.42-.38-1.03-.57-1.82-.57h-2.3v4.32Z"/><path d="m407.26,222.42h-7.45v-1.04l3.94-4.38c.58-.66.99-1.2,1.21-1.61.22-.41.33-.84.33-1.29,0-.59-.18-1.08-.54-1.46s-.84-.57-1.44-.57c-.72,0-1.28.2-1.68.61s-.6.98-.6,1.71h-1.45c0-1.05.34-1.89,1.01-2.54.67-.65,1.58-.97,2.71-.97,1.06,0,1.89.28,2.51.83.61.55.92,1.29.92,2.21,0,1.12-.71,2.45-2.14,4l-3.05,3.3h5.71v1.18Z"/><path d="m372.63,71.33v-11.38h3.21c.99,0,1.86.22,2.62.66s1.35,1.06,1.76,1.87.62,1.73.63,2.78v.73c0,1.07-.21,2.01-.62,2.82s-1,1.43-1.77,1.86-1.66.65-2.68.66h-3.15Zm1.5-10.15v8.92h1.58c1.16,0,2.06-.36,2.7-1.08s.96-1.74.96-3.07v-.66c0-1.29-.3-2.3-.91-3.01s-1.47-1.08-2.58-1.09h-1.75Z"/><path d="m384.85,64.94h1.09c.68-.01,1.22-.19,1.61-.54s.59-.82.59-1.41c0-1.33-.66-2-1.99-2-.62,0-1.12.18-1.5.54s-.56.83-.56,1.42h-1.45c0-.9.33-1.65.99-2.25s1.5-.89,2.51-.89c1.07,0,1.91.28,2.52.85s.91,1.36.91,2.37c0,.5-.16.97-.48,1.44s-.76.81-1.31,1.04c.62.2,1.11.53,1.45.98s.51,1.02.51,1.68c0,1.02-.33,1.83-1,2.43s-1.53.9-2.6.9-1.94-.29-2.61-.87-1-1.34-1-2.29h1.45c0,.6.2,1.08.59,1.44s.91.54,1.57.54c.7,0,1.23-.18,1.6-.55s.55-.89.55-1.57-.2-1.17-.61-1.52-.99-.54-1.76-.55h-1.09v-1.18Z"/><path d="m482.2,77.08l3.72,9.28,3.72-9.28h1.95v11.38h-1.5v-4.43l.14-4.78-3.73,9.21h-1.15l-3.73-9.19.15,4.76v4.43h-1.5v-11.38h1.94Z"/><path d="m436.32,77.08l3.72,9.28,3.72-9.28h1.95v11.38h-1.5v-4.43l.14-4.78-3.73,9.21h-1.15l-3.73-9.19.15,4.76v4.43h-1.5v-11.38h1.94Z"/><path d="m457.1,83.14c0,1.11-.19,2.09-.56,2.92s-.91,1.46-1.59,1.9-1.49.66-2.41.66-1.69-.22-2.38-.66-1.23-1.07-1.61-1.88-.58-1.76-.59-2.83v-.82c0-1.09.19-2.06.57-2.9s.92-1.48,1.61-1.93,1.49-.67,2.39-.67,1.71.22,2.41.66,1.23,1.08,1.61,1.91.56,1.81.56,2.92v.72Zm-1.49-.73c0-1.35-.27-2.38-.81-3.11s-1.3-1.08-2.27-1.08-1.69.36-2.24,1.08-.82,1.72-.84,3v.84c0,1.31.27,2.33.82,3.08s1.31,1.12,2.27,1.12,1.72-.35,2.25-1.06.8-1.72.82-3.04v-.84Z"/><path d="m467,78.31h-3.66v10.15h-1.49v-10.15h-3.65v-1.23h8.8v1.23Z"/><path d="m498.6,200.86c0,1.1-.17,2.05-.52,2.84-.35.79-.84,1.42-1.47,1.86l2.03,1.59-1.02.95-2.4-1.91c-.38.09-.77.14-1.19.14-.9,0-1.69-.22-2.38-.66-.69-.44-1.23-1.07-1.61-1.88s-.58-1.76-.59-2.83v-.82c0-1.09.19-2.06.57-2.9.38-.84.92-1.48,1.61-1.93s1.49-.67,2.39-.67,1.72.22,2.42.66,1.23,1.08,1.61,1.91.56,1.8.56,2.91v.73Zm-1.5-.73c0-1.34-.27-2.37-.8-3.1-.53-.73-1.3-1.09-2.29-1.09s-1.69.36-2.23,1.08c-.54.72-.82,1.72-.84,3v.84c0,1.3.27,2.33.82,3.08.54.75,1.3,1.12,2.27,1.12s1.72-.35,2.25-1.06.8-1.72.82-3.04v-.84Z"/><path d="m505.29,206.18h-1.45v-9.63l-2.91,1.07v-1.31l4.14-1.55h.23v11.43Z"/><path d="m27.9,193.18v.77h-.17c-.7.01-1.26.22-1.68.62s-.66.97-.72,1.7c.37-.43.89-.64,1.53-.64s1.11.22,1.48.65.55,1,.55,1.69c0,.73-.2,1.32-.6,1.76s-.93.66-1.6.66-1.23-.26-1.66-.78c-.42-.52-.63-1.2-.63-2.02v-.35c0-1.31.28-2.31.84-3,.56-.69,1.39-1.04,2.49-1.06h.16Zm-1.19,3.2c-.31,0-.59.09-.85.28s-.44.42-.54.7v.33c0,.59.13,1.06.4,1.42s.59.54.99.54.73-.15.96-.45.35-.69.35-1.18-.12-.88-.35-1.18c-.24-.3-.55-.45-.94-.45Z"/><path d="m31.94,197.64h-2.38v-.74h2.38v.74Z"/><path d="m35.69,200.29h-.91v-6.02l-1.82.67v-.82l2.59-.97h.14v7.14Z"/><path d="m43,200.29h-4.66v-.65l2.46-2.73c.36-.41.62-.75.75-1.01.14-.26.21-.53.21-.8,0-.37-.11-.68-.34-.91s-.52-.36-.9-.36c-.45,0-.8.13-1.05.38-.25.26-.37.61-.37,1.07h-.9c0-.65.21-1.18.63-1.59s.99-.61,1.69-.61c.66,0,1.18.17,1.57.52.38.35.58.81.58,1.38,0,.7-.45,1.53-1.34,2.5l-1.9,2.07h3.57v.74Z"/><path d="m46.54,199.05l2.03-5.86h1.03l-2.64,7.11h-.83l-2.63-7.11h1.02l2.02,5.86Z"/><path d="m139.67,159.27h-.91v-6.02l-1.82.67v-.82l2.59-.97h.14v7.14Z"/><path d="m148.01,159.27h-.94l-3.58-5.48v5.48h-.94v-7.11h.94l3.59,5.5v-5.5h.93v7.11Z"/><path d="m153.25,156.88h.99v.74h-.99v1.65h-.91v-1.65h-3.24v-.53l3.18-4.93h.96v4.72Zm-3.12,0h2.21v-3.49l-.11.2-2.1,3.29Z"/><path d="m158.02,159.27h-.91v-6.02l-1.82.67v-.82l2.59-.97h.14v7.14Z"/><path d="m164.48,156.88h.99v.74h-.99v1.65h-.91v-1.65h-3.24v-.53l3.18-4.93h.96v4.72Zm-3.12,0h2.21v-3.49l-.11.2-2.1,3.29Z"/><path d="m170.6,154.01c0,.35-.09.67-.28.95-.19.28-.44.49-.76.65.37.16.67.39.88.7.22.31.32.65.32,1.04,0,.62-.21,1.11-.62,1.47s-.96.55-1.64.55-1.23-.18-1.64-.55c-.41-.37-.62-.86-.62-1.47,0-.38.11-.73.32-1.04s.5-.54.87-.7c-.32-.16-.56-.37-.75-.65-.18-.28-.27-.59-.27-.94,0-.6.19-1.07.58-1.43.38-.35.89-.53,1.52-.53s1.13.18,1.52.53.58.83.58,1.43Zm-.74,3.32c0-.4-.13-.72-.38-.97-.25-.25-.58-.38-.99-.38s-.73.12-.98.37c-.25.25-.37.57-.37.98s.12.72.36.95.57.35,1,.35.76-.12,1-.35c.24-.23.36-.55.36-.95Zm-1.36-4.53c-.35,0-.64.11-.86.33-.22.22-.33.52-.33.9s.11.65.33.88c.22.22.5.33.87.33s.65-.11.87-.33c.22-.22.32-.51.32-.88s-.11-.66-.34-.88-.51-.34-.85-.34Z"/><path d="m104.13,111.6h-.91v-6.02l-1.82.67v-.82l2.59-.97h.14v7.14Z"/><path d="m111.24,108.57c0,1.06-.18,1.84-.54,2.36s-.93.77-1.69.77-1.32-.25-1.68-.75c-.36-.5-.55-1.25-.57-2.25v-1.21c0-1.04.18-1.82.54-2.33s.93-.76,1.7-.76,1.33.25,1.69.73c.36.49.55,1.25.56,2.27v1.17Zm-.9-1.24c0-.76-.11-1.32-.32-1.67-.21-.35-.56-.53-1.02-.53s-.8.17-1.01.52-.32.88-.33,1.61v1.45c0,.77.11,1.34.33,1.7.22.37.56.55,1.01.55s.78-.17.99-.52.33-.89.34-1.63v-1.48Z"/><path d="m116.85,108.57c0,1.06-.18,1.84-.54,2.36s-.93.77-1.69.77-1.32-.25-1.68-.75c-.36-.5-.55-1.25-.57-2.25v-1.21c0-1.04.18-1.82.54-2.33s.93-.76,1.7-.76,1.33.25,1.69.73c.36.49.55,1.25.56,2.27v1.17Zm-.9-1.24c0-.76-.11-1.32-.32-1.67-.21-.35-.56-.53-1.02-.53s-.8.17-1.01.52-.32.88-.33,1.61v1.45c0,.77.11,1.34.33,1.7.22.37.56.55,1.01.55s.78-.17.99-.52.33-.89.34-1.63v-1.48Z"/><path d="m120.05,108.29l-.87.9v2.4h-.94v-7.11h.94v3.52l3.16-3.52h1.13l-2.8,3.14,3.02,3.97h-1.12l-2.52-3.31Z"/><path d="m139.55,45.99h-.91v-6.02l-1.82.67v-.82l2.59-.97h.14v7.14Z"/><path d="m147.89,45.99h-.94l-3.58-5.48v5.48h-.94v-7.11h.94l3.59,5.5v-5.5h.93v7.11Z"/><path d="m153.14,43.61h.99v.74h-.99v1.65h-.91v-1.65h-3.24v-.53l3.18-4.93h.96v4.72Zm-3.12,0h2.21v-3.49l-.11.2-2.1,3.29Z"/><path d="m157.91,45.99h-.91v-6.02l-1.82.67v-.82l2.59-.97h.14v7.14Z"/><path d="m164.37,43.61h.99v.74h-.99v1.65h-.91v-1.65h-3.24v-.53l3.18-4.93h.96v4.72Zm-3.12,0h2.21v-3.49l-.11.2-2.1,3.29Z"/><path d="m170.48,40.74c0,.35-.09.67-.28.95-.19.28-.44.49-.76.65.37.16.67.39.88.7.22.31.32.65.32,1.04,0,.62-.21,1.11-.62,1.47s-.96.55-1.64.55-1.23-.18-1.64-.55c-.41-.37-.62-.86-.62-1.47,0-.38.11-.73.32-1.04s.5-.54.87-.7c-.32-.16-.56-.37-.75-.65-.18-.28-.27-.59-.27-.94,0-.6.19-1.07.58-1.43.38-.35.89-.53,1.52-.53s1.13.18,1.52.53.58.83.58,1.43Zm-.74,3.32c0-.4-.13-.72-.38-.97-.25-.25-.58-.38-.99-.38s-.73.12-.98.37c-.25.25-.37.57-.37.98s.12.72.36.95.57.35,1,.35.76-.12,1-.35c.24-.23.36-.55.36-.95Zm-1.36-4.53c-.35,0-.64.11-.86.33-.22.22-.33.52-.33.9s.11.65.33.88c.22.22.5.33.87.33s.65-.11.87-.33c.22-.22.32-.51.32-.88s-.11-.66-.34-.88-.51-.34-.85-.34Z"/><path d="m269.63,119.58h-.91v-6.02l-1.82.67v-.82l2.59-.97h.14v7.14Z"/><path d="m274.31,116.28l-.87.9v2.4h-.94v-7.11h.94v3.52l3.16-3.52h1.13l-2.8,3.14,3.02,3.97h-1.12l-2.52-3.31Z"/><path d="m305.34,213.46h-.94l-3.58-5.48v5.48h-.94v-7.11h.94l3.59,5.5v-5.5h.93v7.11Z"/><path d="m311.02,210.17h-3.08v2.52h3.58v.77h-4.52v-7.11h4.47v.77h-3.53v2.29h3.08v.77Z"/><path d="m312.87,209.89l.36-3.54h3.64v.83h-2.88l-.21,1.94c.35-.21.74-.31,1.19-.31.65,0,1.16.21,1.54.64.38.43.57,1.01.57,1.74s-.2,1.31-.59,1.73c-.4.42-.95.63-1.66.63-.63,0-1.14-.17-1.54-.52-.4-.35-.62-.83-.68-1.45h.85c.06.41.2.71.43.92.23.21.54.31.93.31.42,0,.75-.14.99-.43s.36-.68.36-1.19c0-.48-.13-.86-.39-1.14-.26-.29-.6-.43-1.03-.43-.39,0-.7.09-.93.26l-.24.2-.72-.19Z"/><path d="m318.48,209.89l.36-3.54h3.64v.83h-2.88l-.21,1.94c.35-.21.74-.31,1.19-.31.65,0,1.16.21,1.54.64.38.43.57,1.01.57,1.74s-.2,1.31-.59,1.73c-.4.42-.95.63-1.66.63-.63,0-1.14-.17-1.54-.52-.4-.35-.62-.83-.68-1.45h.85c.06.41.2.71.43.92.23.21.54.31.93.31.42,0,.75-.14.99-.43s.36-.68.36-1.19c0-.48-.13-.86-.39-1.14-.26-.29-.6-.43-1.03-.43-.39,0-.7.09-.93.26l-.24.2-.72-.19Z"/><path d="m324.1,209.89l.36-3.54h3.64v.83h-2.88l-.21,1.94c.35-.21.74-.31,1.19-.31.65,0,1.16.21,1.54.64.38.43.57,1.01.57,1.74s-.2,1.31-.59,1.73c-.4.42-.95.63-1.66.63-.63,0-1.14-.17-1.54-.52-.4-.35-.62-.83-.68-1.45h.85c.06.41.2.71.43.92.23.21.54.31.93.31.42,0,.75-.14.99-.43s.36-.68.36-1.19c0-.48-.13-.86-.39-1.14-.26-.29-.6-.43-1.03-.43-.39,0-.7.09-.93.26l-.24.2-.72-.19Z"/><path d="m309.13,239.52h-.91v-6.02l-1.82.67v-.82l2.59-.97h.14v7.14Z"/><path d="m336.31,235.96l.36-3.54h3.64v.83h-2.88l-.21,1.94c.35-.21.74-.31,1.19-.31.65,0,1.16.21,1.54.64.38.43.57,1.01.57,1.74s-.2,1.31-.59,1.73c-.4.42-.95.63-1.66.63-.63,0-1.14-.17-1.54-.52-.4-.35-.62-.83-.68-1.45h.85c.05.41.2.71.43.92.23.21.54.31.93.31.42,0,.75-.14.99-.43s.36-.68.36-1.19c0-.48-.13-.86-.39-1.14-.26-.29-.6-.43-1.03-.43-.39,0-.7.09-.93.26l-.24.2-.72-.19Z"/><path d="m345,208.56h.68c.43,0,.76-.12,1.01-.34s.37-.51.37-.88c0-.83-.42-1.25-1.25-1.25-.39,0-.7.11-.93.33-.23.22-.35.52-.35.89h-.9c0-.56.21-1.03.62-1.4.41-.37.93-.56,1.57-.56.67,0,1.2.18,1.58.53s.57.85.57,1.48c0,.31-.1.61-.3.9s-.47.51-.82.65c.39.12.69.33.91.62s.32.64.32,1.05c0,.64-.21,1.14-.62,1.52-.42.37-.96.56-1.62.56s-1.21-.18-1.63-.54-.63-.84-.63-1.43h.91c0,.37.12.67.37.9s.57.34.98.34c.44,0,.77-.11,1-.34.23-.23.35-.55.35-.98s-.13-.73-.38-.95-.62-.33-1.1-.34h-.68v-.74Z"/><path d="m339.65,163.15c0,.35-.09.67-.28.95-.19.28-.44.49-.76.65.37.16.67.39.88.7.22.31.32.65.32,1.04,0,.62-.21,1.11-.62,1.47s-.96.55-1.64.55-1.23-.18-1.64-.55c-.41-.37-.62-.86-.62-1.47,0-.38.11-.73.32-1.04s.5-.54.87-.7c-.32-.16-.56-.37-.75-.65-.18-.28-.27-.59-.27-.94,0-.6.19-1.07.58-1.43.38-.35.89-.53,1.52-.53s1.13.18,1.52.53.58.83.58,1.43Zm-.74,3.32c0-.4-.13-.72-.38-.97-.25-.25-.58-.38-.99-.38s-.73.12-.98.37c-.25.25-.37.57-.37.98s.12.72.36.95.57.35,1,.35.76-.12,1-.35c.24-.23.36-.55.36-.95Zm-1.36-4.53c-.35,0-.64.11-.86.33-.22.22-.33.52-.33.9s.11.65.33.88c.22.22.5.33.87.33s.65-.11.87-.33c.22-.22.32-.51.32-.88s-.11-.66-.34-.88-.51-.34-.85-.34Z"/><path d="m310.73,164.35h.99v.74h-.99v1.65h-.91v-1.65h-3.24v-.53l3.18-4.93h.96v4.72Zm-3.12,0h2.21v-3.49l-.11.2-2.1,3.29Z"/><path d="m284.96,176.18l-2.94,6.6h-.95l2.93-6.37h-3.85v-.74h4.8v.51Z"/><path d="m283.38,204.87v.77h-.17c-.7.01-1.26.22-1.68.62-.42.4-.66.97-.72,1.7.38-.43.89-.64,1.53-.64s1.11.22,1.48.65c.37.44.55,1,.55,1.69,0,.73-.2,1.32-.6,1.76-.4.44-.93.66-1.6.66s-1.23-.26-1.66-.78c-.42-.52-.63-1.2-.63-2.02v-.35c0-1.31.28-2.31.84-3,.56-.69,1.39-1.04,2.49-1.06h.16Zm-1.19,3.2c-.31,0-.59.09-.85.28-.26.19-.44.42-.54.7v.33c0,.59.13,1.06.4,1.42s.59.54.99.54.73-.15.96-.45c.23-.3.35-.69.35-1.18s-.12-.88-.35-1.18c-.24-.3-.55-.45-.94-.45Z"/><path d="m284.6,235.06h-4.66v-.65l2.46-2.73c.36-.41.62-.75.75-1.01.14-.26.21-.53.21-.8,0-.37-.11-.68-.34-.91s-.52-.36-.9-.36c-.45,0-.8.13-1.05.38-.25.26-.37.61-.37,1.07h-.9c0-.65.21-1.18.63-1.59.42-.4.99-.61,1.69-.61.66,0,1.18.17,1.57.52.38.35.58.81.58,1.38,0,.7-.45,1.53-1.34,2.5l-1.9,2.07h3.57v.74Z"/><path d="m395.56,186.9h-4.66v-.65l2.46-2.73c.36-.41.62-.75.75-1.01.14-.26.21-.53.21-.8,0-.37-.11-.68-.34-.91s-.52-.36-.9-.36c-.45,0-.8.13-1.05.38-.25.26-.37.61-.37,1.07h-.9c0-.65.21-1.18.63-1.59.42-.4.99-.61,1.69-.61.66,0,1.18.17,1.57.52.38.35.58.81.58,1.38,0,.7-.45,1.53-1.34,2.5l-1.9,2.07h3.57v.74Z"/><path d="m401.18,186.9h-4.66v-.65l2.46-2.73c.36-.41.62-.75.75-1.01.14-.26.21-.53.21-.8,0-.37-.11-.68-.34-.91s-.52-.36-.9-.36c-.45,0-.8.13-1.05.38-.25.26-.37.61-.37,1.07h-.9c0-.65.21-1.18.63-1.59.42-.4.99-.61,1.69-.61.66,0,1.18.17,1.57.52.38.35.58.81.58,1.38,0,.7-.45,1.53-1.34,2.5l-1.9,2.07h3.57v.74Z"/><path d="m404.18,183.59l-.87.9v2.4h-.94v-7.11h.94v3.52l3.16-3.52h1.13l-2.8,3.14,3.02,3.97h-1.12l-2.52-3.31Z"/><path d="m442.43,220.77l2.32,5.8,2.32-5.8h1.22v7.11h-.94v-2.77l.09-2.99-2.33,5.76h-.72l-2.33-5.74.09,2.97v2.77h-.94v-7.11h1.21Z"/><path d="m450.89,225.1v2.78h-.94v-7.11h2.62c.78,0,1.39.2,1.83.6.44.4.66.92.66,1.58,0,.69-.22,1.22-.65,1.59-.43.37-1.05.56-1.85.56h-1.67Zm0-.77h1.68c.5,0,.89-.12,1.15-.35.27-.24.4-.58.4-1.03,0-.42-.13-.76-.4-1.02-.27-.25-.63-.39-1.1-.4h-1.74v2.79Z"/><path d="m458.35,224.71c-.8-.23-1.39-.51-1.75-.85-.37-.34-.55-.75-.55-1.25,0-.56.22-1.02.67-1.39.45-.37,1.03-.55,1.75-.55.49,0,.92.09,1.31.28.38.19.68.45.89.78s.31.7.31,1.09h-.94c0-.43-.14-.77-.41-1.02-.27-.25-.66-.37-1.16-.37-.46,0-.82.1-1.08.31s-.39.49-.39.85c0,.29.12.54.37.74.25.2.66.38,1.25.55.59.17,1.05.35,1.39.55.33.2.58.43.74.7s.24.58.24.94c0,.58-.22,1.04-.67,1.38-.45.35-1.05.52-1.8.52-.49,0-.94-.09-1.37-.28-.42-.19-.75-.44-.98-.77s-.34-.7-.34-1.11h.94c0,.43.16.77.48,1.02.32.25.74.37,1.27.37.5,0,.87-.1,1.14-.3s.4-.48.4-.83-.12-.62-.37-.81c-.24-.19-.69-.38-1.33-.56Z"/><path d="m466.12,226.02h-2.98l-.67,1.86h-.97l2.71-7.11h.82l2.72,7.11h-.96l-.68-1.86Zm-2.7-.77h2.42l-1.21-3.33-1.21,3.33Z"/><path d="m471.45,227.88h-.91v-6.02l-1.82.67v-.82l2.59-.97h.14v7.14Z"/><path d="m475.41,223.89h.68c.43,0,.76-.12,1.01-.34s.37-.51.37-.88c0-.83-.42-1.25-1.25-1.25-.39,0-.7.11-.93.33-.23.22-.35.52-.35.89h-.9c0-.56.21-1.03.62-1.4.41-.37.93-.56,1.57-.56.67,0,1.2.18,1.58.53s.57.85.57,1.48c0,.31-.1.61-.3.9s-.47.51-.82.65c.39.12.69.33.91.62.21.29.32.64.32,1.05,0,.64-.21,1.14-.62,1.52-.42.37-.96.56-1.63.56s-1.21-.18-1.63-.54c-.42-.36-.63-.84-.63-1.43h.91c0,.37.12.67.37.9s.57.34.98.34c.44,0,.77-.11,1-.34.23-.23.35-.55.35-.98s-.13-.73-.38-.95-.62-.33-1.1-.34h-.68v-.74Z"/><path d="m367.41,84.2h-.91v-6.02l-1.82.67v-.82l2.59-.97h.14v7.14Z"/><path d="m375.76,84.2h-.94l-3.58-5.48v5.48h-.94v-7.11h.94l3.59,5.5v-5.5h.93v7.11Z"/><path d="m381,81.81h.99v.74h-.99v1.65h-.91v-1.65h-3.24v-.53l3.18-4.93h.96v4.72Zm-3.12,0h2.21v-3.49l-.11.2-2.1,3.29Z"/><path d="m385.77,84.2h-.91v-6.02l-1.82.67v-.82l2.59-.97h.14v7.14Z"/><path d="m392.23,81.81h.99v.74h-.99v1.65h-.91v-1.65h-3.24v-.53l3.18-4.93h.96v4.72Zm-3.12,0h2.21v-3.49l-.11.2-2.1,3.29Z"/><path d="m398.35,78.95c0,.35-.09.67-.28.95-.19.28-.44.49-.76.65.37.16.67.39.88.7.22.31.32.65.32,1.04,0,.62-.21,1.11-.62,1.47s-.96.55-1.64.55-1.23-.18-1.64-.55c-.41-.37-.62-.86-.62-1.47,0-.38.11-.73.32-1.04s.5-.54.87-.7c-.32-.16-.56-.37-.75-.65-.18-.28-.27-.59-.27-.94,0-.6.19-1.07.58-1.43.38-.35.89-.53,1.52-.53s1.13.18,1.52.53.58.83.58,1.43Zm-.74,3.32c0-.4-.13-.72-.38-.97-.25-.25-.58-.38-.99-.38s-.73.12-.98.37c-.25.25-.37.57-.37.98s.12.72.36.95.57.35,1,.35.76-.12,1-.35c.24-.23.36-.55.36-.95Zm-1.36-4.53c-.35,0-.64.11-.86.33-.22.22-.33.52-.33.9s.11.65.33.88c.22.22.5.33.87.33s.65-.11.87-.33c.22-.22.32-.51.32-.88s-.11-.66-.34-.88-.51-.34-.85-.34Z"/><path d="m121.94,277.83c0,1.06-.18,1.84-.54,2.36s-.93.77-1.69.77-1.32-.25-1.68-.75c-.36-.5-.55-1.25-.57-2.25v-1.21c0-1.04.18-1.82.54-2.33s.93-.76,1.7-.76,1.33.25,1.69.73c.36.49.55,1.25.56,2.27v1.17Zm-.9-1.24c0-.76-.11-1.32-.32-1.67-.21-.35-.56-.53-1.02-.53s-.8.17-1.01.52-.32.88-.33,1.61v1.45c0,.77.11,1.34.33,1.7.22.37.56.55,1.01.55s.78-.17.99-.52.33-.89.34-1.63v-1.48Z"/><path d="m123.21,280.39c0-.16.05-.29.14-.39s.23-.16.42-.16.33.05.42.16.14.23.14.39-.05.28-.14.38-.24.15-.42.15-.32-.05-.42-.15-.14-.23-.14-.38Z"/><path d="m128.7,280.86h-.91v-6.02l-1.82.67v-.82l2.59-.97h.14v7.14Z"/><path d="m142.93,277.72h-2.98v3.14h-.94v-7.11h4.4v.77h-3.47v2.44h2.98v.77Z"/><line class="cls-2" x1="131.71" y1="283.54" x2="133.97" y2="274.46"/><path class="cls-2" d="m136.82,274.46s-.77,3.76-1.23,4.94c-.19.5-.76,1.39-1.62,1.39-1.13,0-1.13-1.8-1.13-1.8"/><path class="cls-2" d="m135.73,279s-.38,1.76.74,1.8c.79.03,1.1-1.28,1.1-1.28"/></g></svg>